<?xml version="1.0" standalone="no"?>
<!DOCTYPE svg PUBLIC "-//W3C//DTD SVG 20010904//EN"
 "http://www.w3.org/TR/2001/REC-SVG-20010904/DTD/svg10.dtd">
<svg version="1.0" xmlns="http://www.w3.org/2000/svg"
 width="112.000000pt" height="130.000000pt" viewBox="0 0 112.000000 130.000000"
 preserveAspectRatio="xMidYMid meet">

<g transform="translate(0.000000,130.000000) scale(0.100000,-0.100000)"
fill="#000000" stroke="none">
<path d="M97 1277 c-3 -8 -1 -20 4 -28 16 -25 11 -79 -7 -79 -13 0 -15 7 -11
36 4 26 2 37 -9 41 -22 8 -42 -13 -26 -29 21 -21 14 -48 -11 -48 -23 0 -23 -1
-23 -127 1 -71 -2 -142 -6 -160 l-7 -32 91 -3 92 -3 117 -330 c64 -181 127
-372 139 -422 l23 -93 37 0 c34 0 38 3 48 38 18 61 104 196 184 288 202 236
294 380 353 555 37 109 40 147 13 199 -37 72 -74 90 -182 90 l-91 0 0 -117 c0
-65 -4 -137 -8 -160 l-9 -43 82 0 c80 0 81 0 75 -22 -24 -81 -168 -301 -237
-363 -47 -43 -124 -83 -177 -91 l-41 -7 43 99 c93 210 132 344 143 490 8 104
0 145 -35 183 -29 31 -30 31 -129 31 l-99 0 1 -122 c1 -68 -3 -140 -7 -160
l-8 -38 87 0 87 0 -7 -55 c-3 -30 -20 -92 -36 -137 -38 -106 -113 -278 -121
-278 -4 0 -9 8 -12 18 -3 9 -35 100 -72 202 l-68 185 -1 155 c-1 170 -9 198
-62 222 -23 11 -24 16 -19 51 7 36 6 38 -16 35 -21 -3 -24 -8 -21 -40 2 -24
-1 -38 -8 -38 -8 0 -11 18 -8 58 3 52 1 57 -18 60 -12 2 -24 -3 -27 -11z"/>
</g>
</svg>
