<?xml version="1.0" standalone="no"?>
<!DOCTYPE svg PUBLIC "-//W3C//DTD SVG 20010904//EN"
 "http://www.w3.org/TR/2001/REC-SVG-20010904/DTD/svg10.dtd">
<svg version="1.0" xmlns="http://www.w3.org/2000/svg"
 width="111.000000pt" height="129.000000pt" viewBox="0 0 111.000000 129.000000"
 preserveAspectRatio="xMidYMid meet">

<g transform="translate(0.000000,129.000000) scale(0.100000,-0.100000)"
fill="#000000" stroke="none">
<path d="M84 1265 c-4 -9 -2 -21 5 -28 6 -6 11 -28 11 -49 0 -28 -4 -38 -16
-38 -14 0 -15 7 -10 40 5 32 3 42 -10 47 -26 10 -40 -13 -25 -41 14 -26 8 -46
-14 -46 -11 0 -13 -8 -7 -32 4 -18 7 -81 6 -139 l0 -107 78 -7 c60 -5 78 -10
78 -21 0 -9 58 -160 129 -337 125 -311 152 -389 166 -469 6 -37 7 -38 49 -38
40 0 44 3 50 27 9 37 102 176 193 290 123 153 251 385 313 570 62 186 27 253
-132 253 l-76 0 5 -97 c3 -54 0 -117 -5 -140 l-10 -43 55 0 c52 0 54 -1 48
-22 -14 -53 -118 -248 -164 -309 -50 -65 -189 -204 -197 -196 -2 2 18 51 45
108 154 326 211 599 142 673 -23 24 -31 26 -119 26 l-94 0 8 -42 c4 -24 7 -87
6 -140 l-1 -98 69 0 c39 0 70 -2 70 -4 0 -3 -21 -64 -46 -138 -41 -120 -135
-338 -156 -363 -5 -5 -8 142 -8 327 1 344 -5 412 -39 441 -15 14 -173 32 -183
21 -3 -2 2 -34 10 -71 9 -45 12 -93 7 -140 l-6 -73 65 0 64 0 6 -102 c9 -150
12 -388 5 -380 -3 4 -45 104 -92 222 -93 233 -115 309 -125 440 -7 80 -9 86
-34 98 -30 14 -35 32 -16 62 15 24 -1 46 -26 37 -13 -5 -15 -15 -10 -47 6 -34
4 -40 -11 -40 -17 0 -18 23 -3 105 4 26 -39 35 -48 10z"/>
</g>
</svg>
