solid OpenSCAD_Model
  facet normal -1 0 0
    outer loop
      vertex 0 0 0
      vertex 0 79.6055 1
      vertex 0 79.6055 0
    endloop
  endfacet
  facet normal -1 -0 0
    outer loop
      vertex 0 79.6055 1
      vertex 0 0 0
      vertex 0 0 1
    endloop
  endfacet
  facet normal 0 0 1
    outer loop
      vertex 20.7841 33.1584 1
      vertex 11.2 50.5984 1
      vertex 20.5 30.4555 1
    endloop
  endfacet
  facet normal 0 0 1
    outer loop
      vertex 21.6239 35.7431 1
      vertex 11.2 50.5984 1
      vertex 20.7841 33.1584 1
    endloop
  endfacet
  facet normal 0 0 1
    outer loop
      vertex 22.9828 38.0967 1
      vertex 11.2 50.5984 1
      vertex 21.6239 35.7431 1
    endloop
  endfacet
  facet normal 0 0 1
    outer loop
      vertex 11.2 50.5984 1
      vertex 22.9828 38.0967 1
      vertex 23.7218 38.9175 1
    endloop
  endfacet
  facet normal 0 0 1
    outer loop
      vertex 11.2 10.3126 1
      vertex 20.5 30.4555 1
      vertex 11.2 50.5984 1
    endloop
  endfacet
  facet normal 0 0 1
    outer loop
      vertex 20.5 30.4555 1
      vertex 11.2 10.3126 1
      vertex 20.7841 27.7527 1
    endloop
  endfacet
  facet normal 0 0 1
    outer loop
      vertex 22.9828 22.8143 1
      vertex 11.2 10.3126 1
      vertex 23.7218 21.9936 1
    endloop
  endfacet
  facet normal 0 0 1
    outer loop
      vertex 21.6239 25.168 1
      vertex 11.2 10.3126 1
      vertex 22.9828 22.8143 1
    endloop
  endfacet
  facet normal 0 0 1
    outer loop
      vertex 20.7841 27.7527 1
      vertex 11.2 10.3126 1
      vertex 21.6239 25.168 1
    endloop
  endfacet
  facet normal 0 0 1
    outer loop
      vertex 55.8 50.5984 1
      vertex 46.5 30.4555 1
      vertex 55.8 10.3126 1
    endloop
  endfacet
  facet normal 0 0 1
    outer loop
      vertex 55.8 50.5984 1
      vertex 46.2159 33.1584 1
      vertex 46.5 30.4555 1
    endloop
  endfacet
  facet normal 0 0 1
    outer loop
      vertex 55.8 50.5984 1
      vertex 45.3761 35.7431 1
      vertex 46.2159 33.1584 1
    endloop
  endfacet
  facet normal 0 0 1
    outer loop
      vertex 55.8 50.5984 1
      vertex 44.0172 38.0967 1
      vertex 45.3761 35.7431 1
    endloop
  endfacet
  facet normal 0 -0 1
    outer loop
      vertex 44.0172 38.0967 1
      vertex 55.8 50.5984 1
      vertex 43.2782 38.9175 1
    endloop
  endfacet
  facet normal 0 0 1
    outer loop
      vertex 55.8 50.5984 1
      vertex 67 79.6055 1
      vertex 55.8 51.3055 1
    endloop
  endfacet
  facet normal 0 0 1
    outer loop
      vertex 67 79.6055 1
      vertex 55.0929 51.3055 1
      vertex 55.8 51.3055 1
    endloop
  endfacet
  facet normal 0 0 1
    outer loop
      vertex 34.8589 43.3843 1
      vertex 55.0929 51.3055 1
      vertex 67 79.6055 1
    endloop
  endfacet
  facet normal 0 0 1
    outer loop
      vertex 55.0929 51.3055 1
      vertex 42.1987 40.1164 1
      vertex 42.6094 39.6603 1
    endloop
  endfacet
  facet normal 0 0 1
    outer loop
      vertex 55.0929 51.3055 1
      vertex 40 41.7138 1
      vertex 42.1987 40.1164 1
    endloop
  endfacet
  facet normal 0 0 1
    outer loop
      vertex 55.0929 51.3055 1
      vertex 37.5172 42.8193 1
      vertex 40 41.7138 1
    endloop
  endfacet
  facet normal 0 0 1
    outer loop
      vertex 55.0929 51.3055 1
      vertex 34.8589 43.3843 1
      vertex 37.5172 42.8193 1
    endloop
  endfacet
  facet normal 0 0 1
    outer loop
      vertex 67 79.6055 1
      vertex 32.1411 43.3843 1
      vertex 34.8589 43.3843 1
    endloop
  endfacet
  facet normal -0 0 1
    outer loop
      vertex 11.9071 51.3055 1
      vertex 32.1411 43.3843 1
      vertex 67 79.6055 1
    endloop
  endfacet
  facet normal 0 0 1
    outer loop
      vertex 32.1411 43.3843 1
      vertex 11.9071 51.3055 1
      vertex 29.4828 42.8193 1
    endloop
  endfacet
  facet normal 0 0 1
    outer loop
      vertex 29.4828 42.8193 1
      vertex 11.9071 51.3055 1
      vertex 27 41.7138 1
    endloop
  endfacet
  facet normal 0 0 1
    outer loop
      vertex 24.8013 40.1164 1
      vertex 11.9071 51.3055 1
      vertex 24.3906 39.6603 1
    endloop
  endfacet
  facet normal 0 0 1
    outer loop
      vertex 27 41.7138 1
      vertex 11.9071 51.3055 1
      vertex 24.8013 40.1164 1
    endloop
  endfacet
  facet normal -0 0 1
    outer loop
      vertex 0 79.6055 1
      vertex 11.9071 51.3055 1
      vertex 67 79.6055 1
    endloop
  endfacet
  facet normal 0 0 1
    outer loop
      vertex 0 79.6055 1
      vertex 11.2 50.5984 1
      vertex 11.2 51.3055 1
    endloop
  endfacet
  facet normal 0 0 1
    outer loop
      vertex 11.2 50.5984 1
      vertex 0 0 1
      vertex 11.2 10.3126 1
    endloop
  endfacet
  facet normal 0 0 1
    outer loop
      vertex 11.2 50.5984 1
      vertex 0 79.6055 1
      vertex 0 0 1
    endloop
  endfacet
  facet normal 0 0 1
    outer loop
      vertex 11.9071 51.3055 1
      vertex 0 79.6055 1
      vertex 11.2 51.3055 1
    endloop
  endfacet
  facet normal 0 0 1
    outer loop
      vertex 67 79.6055 1
      vertex 55.8 50.5984 1
      vertex 67 0 1
    endloop
  endfacet
  facet normal -0 0 1
    outer loop
      vertex 55.8 10.3126 1
      vertex 67 0 1
      vertex 55.8 50.5984 1
    endloop
  endfacet
  facet normal -0 0 1
    outer loop
      vertex 55.8 9.60554 1
      vertex 67 0 1
      vertex 55.8 10.3126 1
    endloop
  endfacet
  facet normal -0 0 1
    outer loop
      vertex 55.0929 9.60554 1
      vertex 67 0 1
      vertex 55.8 9.60554 1
    endloop
  endfacet
  facet normal -0 0 1
    outer loop
      vertex 42.1987 20.7947 1
      vertex 55.0929 9.60554 1
      vertex 42.6094 21.2508 1
    endloop
  endfacet
  facet normal -0 0 1
    outer loop
      vertex 40 19.1972 1
      vertex 55.0929 9.60554 1
      vertex 42.1987 20.7947 1
    endloop
  endfacet
  facet normal -0 0 1
    outer loop
      vertex 37.5172 18.0918 1
      vertex 55.0929 9.60554 1
      vertex 40 19.1972 1
    endloop
  endfacet
  facet normal -0 0 1
    outer loop
      vertex 34.8589 17.5268 1
      vertex 55.0929 9.60554 1
      vertex 37.5172 18.0918 1
    endloop
  endfacet
  facet normal 0 0 1
    outer loop
      vertex 11.9071 9.60554 1
      vertex 55.0929 9.60554 1
      vertex 34.8589 17.5268 1
    endloop
  endfacet
  facet normal 0 0 1
    outer loop
      vertex 11.9071 9.60554 1
      vertex 34.8589 17.5268 1
      vertex 32.1411 17.5268 1
    endloop
  endfacet
  facet normal 0 0 1
    outer loop
      vertex 11.9071 9.60554 1
      vertex 32.1411 17.5268 1
      vertex 29.4828 18.0918 1
    endloop
  endfacet
  facet normal 0 0 1
    outer loop
      vertex 11.9071 9.60554 1
      vertex 29.4828 18.0918 1
      vertex 27 19.1972 1
    endloop
  endfacet
  facet normal 0 0 1
    outer loop
      vertex 11.9071 9.60554 1
      vertex 24.8013 20.7947 1
      vertex 24.3906 21.2508 1
    endloop
  endfacet
  facet normal 0 0 1
    outer loop
      vertex 11.9071 9.60554 1
      vertex 27 19.1972 1
      vertex 24.8013 20.7947 1
    endloop
  endfacet
  facet normal 0 0 1
    outer loop
      vertex 55.0929 9.60554 1
      vertex 11.9071 9.60554 1
      vertex 67 0 1
    endloop
  endfacet
  facet normal 0 0 1
    outer loop
      vertex 0 0 1
      vertex 11.9071 9.60554 1
      vertex 11.2 9.60554 1
    endloop
  endfacet
  facet normal 0 0 1
    outer loop
      vertex 11.9071 9.60554 1
      vertex 0 0 1
      vertex 67 0 1
    endloop
  endfacet
  facet normal 0 0 1
    outer loop
      vertex 11.2 10.3126 1
      vertex 0 0 1
      vertex 11.2 9.60554 1
    endloop
  endfacet
  facet normal -0 0 1
    outer loop
      vertex 46.2159 27.7527 1
      vertex 55.8 10.3126 1
      vertex 46.5 30.4555 1
    endloop
  endfacet
  facet normal -0 0 1
    outer loop
      vertex 45.3761 25.168 1
      vertex 55.8 10.3126 1
      vertex 46.2159 27.7527 1
    endloop
  endfacet
  facet normal -0 0 1
    outer loop
      vertex 44.0172 22.8143 1
      vertex 55.8 10.3126 1
      vertex 45.3761 25.168 1
    endloop
  endfacet
  facet normal 0 0 1
    outer loop
      vertex 55.8 10.3126 1
      vertex 44.0172 22.8143 1
      vertex 43.2782 21.9936 1
    endloop
  endfacet
  facet normal 1 -0 0
    outer loop
      vertex 67 0 1
      vertex 67 79.6055 0
      vertex 67 79.6055 1
    endloop
  endfacet
  facet normal 1 0 0
    outer loop
      vertex 67 79.6055 0
      vertex 67 0 1
      vertex 67 0 0
    endloop
  endfacet
  facet normal 0 1 -0
    outer loop
      vertex 67 79.6055 0
      vertex 0 79.6055 1
      vertex 67 79.6055 1
    endloop
  endfacet
  facet normal 0 1 0
    outer loop
      vertex 0 79.6055 1
      vertex 67 79.6055 0
      vertex 0 79.6055 0
    endloop
  endfacet
  facet normal 0 0 -1
    outer loop
      vertex 55.8 10.3126 0
      vertex 46.5 30.4555 0
      vertex 55.8 50.5984 0
    endloop
  endfacet
  facet normal 0 0 -1
    outer loop
      vertex 55.8 10.3126 0
      vertex 46.2159 27.7527 0
      vertex 46.5 30.4555 0
    endloop
  endfacet
  facet normal 0 0 -1
    outer loop
      vertex 55.8 10.3126 0
      vertex 45.3761 25.168 0
      vertex 46.2159 27.7527 0
    endloop
  endfacet
  facet normal 0 0 -1
    outer loop
      vertex 55.8 10.3126 0
      vertex 44.0172 22.8143 0
      vertex 45.3761 25.168 0
    endloop
  endfacet
  facet normal 0 -0 -1
    outer loop
      vertex 44.0172 22.8143 0
      vertex 55.8 10.3126 0
      vertex 43.2782 21.9936 0
    endloop
  endfacet
  facet normal 0 0 -1
    outer loop
      vertex 55.8 10.3126 0
      vertex 67 0 0
      vertex 55.8 9.60554 0
    endloop
  endfacet
  facet normal 0 0 -1
    outer loop
      vertex 67 0 0
      vertex 55.0929 9.60554 0
      vertex 55.8 9.60554 0
    endloop
  endfacet
  facet normal 0 0 -1
    outer loop
      vertex 55.0929 9.60554 0
      vertex 42.1987 20.7947 0
      vertex 42.6094 21.2508 0
    endloop
  endfacet
  facet normal 0 0 -1
    outer loop
      vertex 55.0929 9.60554 0
      vertex 40 19.1972 0
      vertex 42.1987 20.7947 0
    endloop
  endfacet
  facet normal 0 0 -1
    outer loop
      vertex 11.9071 9.60554 0
      vertex 55.0929 9.60554 0
      vertex 67 0 0
    endloop
  endfacet
  facet normal 0 0 -1
    outer loop
      vertex 55.0929 9.60554 0
      vertex 37.5172 18.0918 0
      vertex 40 19.1972 0
    endloop
  endfacet
  facet normal 0 0 -1
    outer loop
      vertex 55.0929 9.60554 0
      vertex 34.8589 17.5268 0
      vertex 37.5172 18.0918 0
    endloop
  endfacet
  facet normal 0 0 -1
    outer loop
      vertex 55.0929 9.60554 0
      vertex 11.9071 9.60554 0
      vertex 34.8589 17.5268 0
    endloop
  endfacet
  facet normal -0 0 -1
    outer loop
      vertex 34.8589 17.5268 0
      vertex 11.9071 9.60554 0
      vertex 32.1411 17.5268 0
    endloop
  endfacet
  facet normal -0 0 -1
    outer loop
      vertex 32.1411 17.5268 0
      vertex 11.9071 9.60554 0
      vertex 29.4828 18.0918 0
    endloop
  endfacet
  facet normal -0 0 -1
    outer loop
      vertex 24.8013 20.7947 0
      vertex 11.9071 9.60554 0
      vertex 24.3906 21.2508 0
    endloop
  endfacet
  facet normal -0 0 -1
    outer loop
      vertex 27 19.1972 0
      vertex 11.9071 9.60554 0
      vertex 24.8013 20.7947 0
    endloop
  endfacet
  facet normal -0 0 -1
    outer loop
      vertex 29.4828 18.0918 0
      vertex 11.9071 9.60554 0
      vertex 27 19.1972 0
    endloop
  endfacet
  facet normal 0 0 -1
    outer loop
      vertex 0 0 0
      vertex 11.9071 9.60554 0
      vertex 67 0 0
    endloop
  endfacet
  facet normal 0 0 -1
    outer loop
      vertex 0 0 0
      vertex 11.2 10.3126 0
      vertex 11.2 9.60554 0
    endloop
  endfacet
  facet normal -0 0 -1
    outer loop
      vertex 11.2 10.3126 0
      vertex 0 0 0
      vertex 11.2 50.5984 0
    endloop
  endfacet
  facet normal 0 0 -1
    outer loop
      vertex 0 79.6055 0
      vertex 11.2 50.5984 0
      vertex 0 0 0
    endloop
  endfacet
  facet normal -0 0 -1
    outer loop
      vertex 11.9071 9.60554 0
      vertex 0 0 0
      vertex 11.2 9.60554 0
    endloop
  endfacet
  facet normal 0 0 -1
    outer loop
      vertex 55.8 50.5984 0
      vertex 67 0 0
      vertex 55.8 10.3126 0
    endloop
  endfacet
  facet normal 0 0 -1
    outer loop
      vertex 67 0 0
      vertex 55.8 50.5984 0
      vertex 67 79.6055 0
    endloop
  endfacet
  facet normal 0 0 -1
    outer loop
      vertex 55.8 51.3055 0
      vertex 67 79.6055 0
      vertex 55.8 50.5984 0
    endloop
  endfacet
  facet normal 0 0 -1
    outer loop
      vertex 55.0929 51.3055 0
      vertex 67 79.6055 0
      vertex 55.8 51.3055 0
    endloop
  endfacet
  facet normal 0 0 -1
    outer loop
      vertex 42.1987 40.1164 0
      vertex 55.0929 51.3055 0
      vertex 42.6094 39.6603 0
    endloop
  endfacet
  facet normal 0 0 -1
    outer loop
      vertex 40 41.7138 0
      vertex 55.0929 51.3055 0
      vertex 42.1987 40.1164 0
    endloop
  endfacet
  facet normal 0 0 -1
    outer loop
      vertex 37.5172 42.8193 0
      vertex 55.0929 51.3055 0
      vertex 40 41.7138 0
    endloop
  endfacet
  facet normal 0 0 -1
    outer loop
      vertex 34.8589 43.3843 0
      vertex 55.0929 51.3055 0
      vertex 37.5172 42.8193 0
    endloop
  endfacet
  facet normal -0 0 -1
    outer loop
      vertex 55.0929 51.3055 0
      vertex 34.8589 43.3843 0
      vertex 67 79.6055 0
    endloop
  endfacet
  facet normal 0 0 -1
    outer loop
      vertex 32.1411 43.3843 0
      vertex 67 79.6055 0
      vertex 34.8589 43.3843 0
    endloop
  endfacet
  facet normal 0 0 -1
    outer loop
      vertex 11.9071 51.3055 0
      vertex 32.1411 43.3843 0
      vertex 29.4828 42.8193 0
    endloop
  endfacet
  facet normal 0 0 -1
    outer loop
      vertex 11.9071 51.3055 0
      vertex 29.4828 42.8193 0
      vertex 27 41.7138 0
    endloop
  endfacet
  facet normal 0 0 -1
    outer loop
      vertex 11.9071 51.3055 0
      vertex 27 41.7138 0
      vertex 24.8013 40.1164 0
    endloop
  endfacet
  facet normal 0 0 -1
    outer loop
      vertex 11.9071 51.3055 0
      vertex 24.8013 40.1164 0
      vertex 24.3906 39.6603 0
    endloop
  endfacet
  facet normal 0 0 -1
    outer loop
      vertex 32.1411 43.3843 0
      vertex 11.9071 51.3055 0
      vertex 67 79.6055 0
    endloop
  endfacet
  facet normal 0 0 -1
    outer loop
      vertex 0 79.6055 0
      vertex 11.9071 51.3055 0
      vertex 11.2 51.3055 0
    endloop
  endfacet
  facet normal 0 0 -1
    outer loop
      vertex 11.9071 51.3055 0
      vertex 0 79.6055 0
      vertex 67 79.6055 0
    endloop
  endfacet
  facet normal 0 0 -1
    outer loop
      vertex 11.2 50.5984 0
      vertex 0 79.6055 0
      vertex 11.2 51.3055 0
    endloop
  endfacet
  facet normal 0 0 -1
    outer loop
      vertex 46.2159 33.1584 0
      vertex 55.8 50.5984 0
      vertex 46.5 30.4555 0
    endloop
  endfacet
  facet normal 0 0 -1
    outer loop
      vertex 45.3761 35.7431 0
      vertex 55.8 50.5984 0
      vertex 46.2159 33.1584 0
    endloop
  endfacet
  facet normal 0 0 -1
    outer loop
      vertex 44.0172 38.0967 0
      vertex 55.8 50.5984 0
      vertex 45.3761 35.7431 0
    endloop
  endfacet
  facet normal 0 0 -1
    outer loop
      vertex 55.8 50.5984 0
      vertex 44.0172 38.0967 0
      vertex 43.2782 38.9175 0
    endloop
  endfacet
  facet normal -0 0 -1
    outer loop
      vertex 20.7841 27.7527 0
      vertex 11.2 10.3126 0
      vertex 20.5 30.4555 0
    endloop
  endfacet
  facet normal -0 0 -1
    outer loop
      vertex 21.6239 25.168 0
      vertex 11.2 10.3126 0
      vertex 20.7841 27.7527 0
    endloop
  endfacet
  facet normal -0 0 -1
    outer loop
      vertex 22.9828 22.8143 0
      vertex 11.2 10.3126 0
      vertex 21.6239 25.168 0
    endloop
  endfacet
  facet normal 0 0 -1
    outer loop
      vertex 11.2 10.3126 0
      vertex 22.9828 22.8143 0
      vertex 23.7218 21.9936 0
    endloop
  endfacet
  facet normal 0 0 -1
    outer loop
      vertex 11.2 50.5984 0
      vertex 20.5 30.4555 0
      vertex 11.2 10.3126 0
    endloop
  endfacet
  facet normal 0 0 -1
    outer loop
      vertex 20.5 30.4555 0
      vertex 11.2 50.5984 0
      vertex 20.7841 33.1584 0
    endloop
  endfacet
  facet normal 0 0 -1
    outer loop
      vertex 22.9828 38.0967 0
      vertex 11.2 50.5984 0
      vertex 23.7218 38.9175 0
    endloop
  endfacet
  facet normal 0 0 -1
    outer loop
      vertex 21.6239 35.7431 0
      vertex 11.2 50.5984 0
      vertex 22.9828 38.0967 0
    endloop
  endfacet
  facet normal 0 0 -1
    outer loop
      vertex 20.7841 33.1584 0
      vertex 11.2 50.5984 0
      vertex 21.6239 35.7431 0
    endloop
  endfacet
  facet normal 0 -1 0
    outer loop
      vertex 0 0 0
      vertex 67 0 1
      vertex 0 0 1
    endloop
  endfacet
  facet normal 0 -1 -0
    outer loop
      vertex 67 0 1
      vertex 0 0 0
      vertex 67 0 0
    endloop
  endfacet
  facet normal 0.743124 0.669154 0
    outer loop
      vertex 24.8013 20.7947 1
      vertex 24.3906 21.2508 0
      vertex 24.3906 21.2508 1
    endloop
  endfacet
  facet normal 0.743124 0.669154 0
    outer loop
      vertex 24.3906 21.2508 0
      vertex 24.8013 20.7947 1
      vertex 24.8013 20.7947 0
    endloop
  endfacet
  facet normal 0.587798 0.809008 -0
    outer loop
      vertex 27 19.1972 0
      vertex 24.8013 20.7947 1
      vertex 27 19.1972 1
    endloop
  endfacet
  facet normal 0.587798 0.809008 0
    outer loop
      vertex 24.8013 20.7947 1
      vertex 27 19.1972 0
      vertex 24.8013 20.7947 0
    endloop
  endfacet
  facet normal 0.406732 0.913547 -0
    outer loop
      vertex 29.4828 18.0918 0
      vertex 27 19.1972 1
      vertex 29.4828 18.0918 1
    endloop
  endfacet
  facet normal 0.406732 0.913547 0
    outer loop
      vertex 27 19.1972 1
      vertex 29.4828 18.0918 0
      vertex 27 19.1972 0
    endloop
  endfacet
  facet normal 0.207898 0.978151 -0
    outer loop
      vertex 32.1411 17.5268 0
      vertex 29.4828 18.0918 1
      vertex 32.1411 17.5268 1
    endloop
  endfacet
  facet normal 0.207898 0.978151 0
    outer loop
      vertex 29.4828 18.0918 1
      vertex 32.1411 17.5268 0
      vertex 29.4828 18.0918 0
    endloop
  endfacet
  facet normal 0 1 -0
    outer loop
      vertex 34.8589 17.5268 0
      vertex 32.1411 17.5268 1
      vertex 34.8589 17.5268 1
    endloop
  endfacet
  facet normal 0 1 0
    outer loop
      vertex 32.1411 17.5268 1
      vertex 34.8589 17.5268 0
      vertex 32.1411 17.5268 0
    endloop
  endfacet
  facet normal -0.207898 0.978151 0
    outer loop
      vertex 37.5172 18.0918 0
      vertex 34.8589 17.5268 1
      vertex 37.5172 18.0918 1
    endloop
  endfacet
  facet normal -0.207898 0.978151 0
    outer loop
      vertex 34.8589 17.5268 1
      vertex 37.5172 18.0918 0
      vertex 34.8589 17.5268 0
    endloop
  endfacet
  facet normal -0.406732 0.913547 0
    outer loop
      vertex 40 19.1972 0
      vertex 37.5172 18.0918 1
      vertex 40 19.1972 1
    endloop
  endfacet
  facet normal -0.406732 0.913547 0
    outer loop
      vertex 37.5172 18.0918 1
      vertex 40 19.1972 0
      vertex 37.5172 18.0918 0
    endloop
  endfacet
  facet normal -0.587798 0.809008 0
    outer loop
      vertex 42.1987 20.7947 0
      vertex 40 19.1972 1
      vertex 42.1987 20.7947 1
    endloop
  endfacet
  facet normal -0.587798 0.809008 0
    outer loop
      vertex 40 19.1972 1
      vertex 42.1987 20.7947 0
      vertex 40 19.1972 0
    endloop
  endfacet
  facet normal -0.743124 0.669154 0
    outer loop
      vertex 42.1987 20.7947 0
      vertex 42.6094 21.2508 1
      vertex 42.6094 21.2508 0
    endloop
  endfacet
  facet normal -0.743124 0.669154 0
    outer loop
      vertex 42.6094 21.2508 1
      vertex 42.1987 20.7947 0
      vertex 42.1987 20.7947 1
    endloop
  endfacet
  facet normal 0.68213 0.731231 -0
    outer loop
      vertex 55.0929 9.60554 0
      vertex 42.6094 21.2508 1
      vertex 55.0929 9.60554 1
    endloop
  endfacet
  facet normal 0.68213 0.731231 0
    outer loop
      vertex 42.6094 21.2508 1
      vertex 55.0929 9.60554 0
      vertex 42.6094 21.2508 0
    endloop
  endfacet
  facet normal 0 1 -0
    outer loop
      vertex 55.8 9.60554 0
      vertex 55.0929 9.60554 1
      vertex 55.8 9.60554 1
    endloop
  endfacet
  facet normal 0 1 0
    outer loop
      vertex 55.0929 9.60554 1
      vertex 55.8 9.60554 0
      vertex 55.0929 9.60554 0
    endloop
  endfacet
  facet normal -1 0 0
    outer loop
      vertex 55.8 9.60554 0
      vertex 55.8 10.3126 1
      vertex 55.8 10.3126 0
    endloop
  endfacet
  facet normal -1 -0 0
    outer loop
      vertex 55.8 10.3126 1
      vertex 55.8 9.60554 0
      vertex 55.8 9.60554 1
    endloop
  endfacet
  facet normal -0.682131 -0.73123 0
    outer loop
      vertex 43.2782 21.9936 0
      vertex 55.8 10.3126 1
      vertex 43.2782 21.9936 1
    endloop
  endfacet
  facet normal -0.682131 -0.73123 -0
    outer loop
      vertex 55.8 10.3126 1
      vertex 43.2782 21.9936 0
      vertex 55.8 10.3126 0
    endloop
  endfacet
  facet normal -0.743128 0.66915 0
    outer loop
      vertex 43.2782 21.9936 0
      vertex 44.0172 22.8143 1
      vertex 44.0172 22.8143 0
    endloop
  endfacet
  facet normal -0.743128 0.66915 0
    outer loop
      vertex 44.0172 22.8143 1
      vertex 43.2782 21.9936 0
      vertex 43.2782 21.9936 1
    endloop
  endfacet
  facet normal -0.866027 0.499997 0
    outer loop
      vertex 44.0172 22.8143 0
      vertex 45.3761 25.168 1
      vertex 45.3761 25.168 0
    endloop
  endfacet
  facet normal -0.866027 0.499997 0
    outer loop
      vertex 45.3761 25.168 1
      vertex 44.0172 22.8143 0
      vertex 44.0172 22.8143 1
    endloop
  endfacet
  facet normal -0.951059 0.30901 0
    outer loop
      vertex 45.3761 25.168 0
      vertex 46.2159 27.7527 1
      vertex 46.2159 27.7527 0
    endloop
  endfacet
  facet normal -0.951059 0.30901 0
    outer loop
      vertex 46.2159 27.7527 1
      vertex 45.3761 25.168 0
      vertex 45.3761 25.168 1
    endloop
  endfacet
  facet normal -0.994521 0.104537 0
    outer loop
      vertex 46.2159 27.7527 0
      vertex 46.5 30.4555 1
      vertex 46.5 30.4555 0
    endloop
  endfacet
  facet normal -0.994521 0.104537 0
    outer loop
      vertex 46.5 30.4555 1
      vertex 46.2159 27.7527 0
      vertex 46.2159 27.7527 1
    endloop
  endfacet
  facet normal -0.994521 -0.104533 0
    outer loop
      vertex 46.5 30.4555 0
      vertex 46.2159 33.1584 1
      vertex 46.2159 33.1584 0
    endloop
  endfacet
  facet normal -0.994521 -0.104533 0
    outer loop
      vertex 46.2159 33.1584 1
      vertex 46.5 30.4555 0
      vertex 46.5 30.4555 1
    endloop
  endfacet
  facet normal -0.951059 -0.30901 0
    outer loop
      vertex 46.2159 33.1584 0
      vertex 45.3761 35.7431 1
      vertex 45.3761 35.7431 0
    endloop
  endfacet
  facet normal -0.951059 -0.30901 0
    outer loop
      vertex 45.3761 35.7431 1
      vertex 46.2159 33.1584 0
      vertex 46.2159 33.1584 1
    endloop
  endfacet
  facet normal -0.866018 -0.500013 0
    outer loop
      vertex 45.3761 35.7431 0
      vertex 44.0172 38.0967 1
      vertex 44.0172 38.0967 0
    endloop
  endfacet
  facet normal -0.866018 -0.500013 0
    outer loop
      vertex 44.0172 38.0967 1
      vertex 45.3761 35.7431 0
      vertex 45.3761 35.7431 1
    endloop
  endfacet
  facet normal -0.743168 -0.669105 0
    outer loop
      vertex 44.0172 38.0967 0
      vertex 43.2782 38.9175 1
      vertex 43.2782 38.9175 0
    endloop
  endfacet
  facet normal -0.743168 -0.669105 0
    outer loop
      vertex 43.2782 38.9175 1
      vertex 44.0172 38.0967 0
      vertex 44.0172 38.0967 1
    endloop
  endfacet
  facet normal -0.682127 0.731233 0
    outer loop
      vertex 55.8 50.5984 0
      vertex 43.2782 38.9175 1
      vertex 55.8 50.5984 1
    endloop
  endfacet
  facet normal -0.682127 0.731233 0
    outer loop
      vertex 43.2782 38.9175 1
      vertex 55.8 50.5984 0
      vertex 43.2782 38.9175 0
    endloop
  endfacet
  facet normal -1 0 0
    outer loop
      vertex 55.8 50.5984 0
      vertex 55.8 51.3055 1
      vertex 55.8 51.3055 0
    endloop
  endfacet
  facet normal -1 -0 0
    outer loop
      vertex 55.8 51.3055 1
      vertex 55.8 50.5984 0
      vertex 55.8 50.5984 1
    endloop
  endfacet
  facet normal 0 -1 0
    outer loop
      vertex 55.0929 51.3055 0
      vertex 55.8 51.3055 1
      vertex 55.0929 51.3055 1
    endloop
  endfacet
  facet normal 0 -1 -0
    outer loop
      vertex 55.8 51.3055 1
      vertex 55.0929 51.3055 0
      vertex 55.8 51.3055 0
    endloop
  endfacet
  facet normal 0.682128 -0.731233 0
    outer loop
      vertex 42.6094 39.6603 0
      vertex 55.0929 51.3055 1
      vertex 42.6094 39.6603 1
    endloop
  endfacet
  facet normal 0.682128 -0.731233 0
    outer loop
      vertex 55.0929 51.3055 1
      vertex 42.6094 39.6603 0
      vertex 55.0929 51.3055 0
    endloop
  endfacet
  facet normal -0.743124 -0.669154 0
    outer loop
      vertex 42.6094 39.6603 0
      vertex 42.1987 40.1164 1
      vertex 42.1987 40.1164 0
    endloop
  endfacet
  facet normal -0.743124 -0.669154 0
    outer loop
      vertex 42.1987 40.1164 1
      vertex 42.6094 39.6603 0
      vertex 42.6094 39.6603 1
    endloop
  endfacet
  facet normal -0.587773 -0.809026 0
    outer loop
      vertex 40 41.7138 0
      vertex 42.1987 40.1164 1
      vertex 40 41.7138 1
    endloop
  endfacet
  facet normal -0.587773 -0.809026 -0
    outer loop
      vertex 42.1987 40.1164 1
      vertex 40 41.7138 0
      vertex 42.1987 40.1164 0
    endloop
  endfacet
  facet normal -0.406763 -0.913534 0
    outer loop
      vertex 37.5172 42.8193 0
      vertex 40 41.7138 1
      vertex 37.5172 42.8193 1
    endloop
  endfacet
  facet normal -0.406763 -0.913534 -0
    outer loop
      vertex 40 41.7138 1
      vertex 37.5172 42.8193 0
      vertex 40 41.7138 0
    endloop
  endfacet
  facet normal -0.207898 -0.978151 0
    outer loop
      vertex 34.8589 43.3843 0
      vertex 37.5172 42.8193 1
      vertex 34.8589 43.3843 1
    endloop
  endfacet
  facet normal -0.207898 -0.978151 -0
    outer loop
      vertex 37.5172 42.8193 1
      vertex 34.8589 43.3843 0
      vertex 37.5172 42.8193 0
    endloop
  endfacet
  facet normal 0 -1 0
    outer loop
      vertex 32.1411 43.3843 0
      vertex 34.8589 43.3843 1
      vertex 32.1411 43.3843 1
    endloop
  endfacet
  facet normal 0 -1 -0
    outer loop
      vertex 34.8589 43.3843 1
      vertex 32.1411 43.3843 0
      vertex 34.8589 43.3843 0
    endloop
  endfacet
  facet normal 0.207898 -0.978151 0
    outer loop
      vertex 29.4828 42.8193 0
      vertex 32.1411 43.3843 1
      vertex 29.4828 42.8193 1
    endloop
  endfacet
  facet normal 0.207898 -0.978151 0
    outer loop
      vertex 32.1411 43.3843 1
      vertex 29.4828 42.8193 0
      vertex 32.1411 43.3843 0
    endloop
  endfacet
  facet normal 0.406763 -0.913534 0
    outer loop
      vertex 27 41.7138 0
      vertex 29.4828 42.8193 1
      vertex 27 41.7138 1
    endloop
  endfacet
  facet normal 0.406763 -0.913534 0
    outer loop
      vertex 29.4828 42.8193 1
      vertex 27 41.7138 0
      vertex 29.4828 42.8193 0
    endloop
  endfacet
  facet normal 0.587773 -0.809026 0
    outer loop
      vertex 24.8013 40.1164 0
      vertex 27 41.7138 1
      vertex 24.8013 40.1164 1
    endloop
  endfacet
  facet normal 0.587773 -0.809026 0
    outer loop
      vertex 27 41.7138 1
      vertex 24.8013 40.1164 0
      vertex 27 41.7138 0
    endloop
  endfacet
  facet normal 0.743124 -0.669154 0
    outer loop
      vertex 24.3906 39.6603 1
      vertex 24.8013 40.1164 0
      vertex 24.8013 40.1164 1
    endloop
  endfacet
  facet normal 0.743124 -0.669154 0
    outer loop
      vertex 24.8013 40.1164 0
      vertex 24.3906 39.6603 1
      vertex 24.3906 39.6603 0
    endloop
  endfacet
  facet normal -0.682128 -0.731233 0
    outer loop
      vertex 11.9071 51.3055 0
      vertex 24.3906 39.6603 1
      vertex 11.9071 51.3055 1
    endloop
  endfacet
  facet normal -0.682128 -0.731233 -0
    outer loop
      vertex 24.3906 39.6603 1
      vertex 11.9071 51.3055 0
      vertex 24.3906 39.6603 0
    endloop
  endfacet
  facet normal 0 -1 0
    outer loop
      vertex 11.2 51.3055 0
      vertex 11.9071 51.3055 1
      vertex 11.2 51.3055 1
    endloop
  endfacet
  facet normal 0 -1 -0
    outer loop
      vertex 11.9071 51.3055 1
      vertex 11.2 51.3055 0
      vertex 11.9071 51.3055 0
    endloop
  endfacet
  facet normal 1 -0 0
    outer loop
      vertex 11.2 50.5984 1
      vertex 11.2 51.3055 0
      vertex 11.2 51.3055 1
    endloop
  endfacet
  facet normal 1 0 0
    outer loop
      vertex 11.2 51.3055 0
      vertex 11.2 50.5984 1
      vertex 11.2 50.5984 0
    endloop
  endfacet
  facet normal 0.682127 0.731233 -0
    outer loop
      vertex 23.7218 38.9175 0
      vertex 11.2 50.5984 1
      vertex 23.7218 38.9175 1
    endloop
  endfacet
  facet normal 0.682127 0.731233 0
    outer loop
      vertex 11.2 50.5984 1
      vertex 23.7218 38.9175 0
      vertex 11.2 50.5984 0
    endloop
  endfacet
  facet normal 0.743168 -0.669105 0
    outer loop
      vertex 22.9828 38.0967 1
      vertex 23.7218 38.9175 0
      vertex 23.7218 38.9175 1
    endloop
  endfacet
  facet normal 0.743168 -0.669105 0
    outer loop
      vertex 23.7218 38.9175 0
      vertex 22.9828 38.0967 1
      vertex 22.9828 38.0967 0
    endloop
  endfacet
  facet normal 0.866018 -0.500013 0
    outer loop
      vertex 21.6239 35.7431 1
      vertex 22.9828 38.0967 0
      vertex 22.9828 38.0967 1
    endloop
  endfacet
  facet normal 0.866018 -0.500013 0
    outer loop
      vertex 22.9828 38.0967 0
      vertex 21.6239 35.7431 1
      vertex 21.6239 35.7431 0
    endloop
  endfacet
  facet normal 0.951059 -0.30901 0
    outer loop
      vertex 20.7841 33.1584 1
      vertex 21.6239 35.7431 0
      vertex 21.6239 35.7431 1
    endloop
  endfacet
  facet normal 0.951059 -0.30901 0
    outer loop
      vertex 21.6239 35.7431 0
      vertex 20.7841 33.1584 1
      vertex 20.7841 33.1584 0
    endloop
  endfacet
  facet normal 0.994521 -0.104533 0
    outer loop
      vertex 20.5 30.4555 1
      vertex 20.7841 33.1584 0
      vertex 20.7841 33.1584 1
    endloop
  endfacet
  facet normal 0.994521 -0.104533 0
    outer loop
      vertex 20.7841 33.1584 0
      vertex 20.5 30.4555 1
      vertex 20.5 30.4555 0
    endloop
  endfacet
  facet normal 0.994521 0.104537 0
    outer loop
      vertex 20.7841 27.7527 1
      vertex 20.5 30.4555 0
      vertex 20.5 30.4555 1
    endloop
  endfacet
  facet normal 0.994521 0.104537 0
    outer loop
      vertex 20.5 30.4555 0
      vertex 20.7841 27.7527 1
      vertex 20.7841 27.7527 0
    endloop
  endfacet
  facet normal 0.951059 0.30901 0
    outer loop
      vertex 21.6239 25.168 1
      vertex 20.7841 27.7527 0
      vertex 20.7841 27.7527 1
    endloop
  endfacet
  facet normal 0.951059 0.30901 0
    outer loop
      vertex 20.7841 27.7527 0
      vertex 21.6239 25.168 1
      vertex 21.6239 25.168 0
    endloop
  endfacet
  facet normal 0.866027 0.499997 0
    outer loop
      vertex 22.9828 22.8143 1
      vertex 21.6239 25.168 0
      vertex 21.6239 25.168 1
    endloop
  endfacet
  facet normal 0.866027 0.499997 0
    outer loop
      vertex 21.6239 25.168 0
      vertex 22.9828 22.8143 1
      vertex 22.9828 22.8143 0
    endloop
  endfacet
  facet normal 0.743128 0.66915 0
    outer loop
      vertex 23.7218 21.9936 1
      vertex 22.9828 22.8143 0
      vertex 22.9828 22.8143 1
    endloop
  endfacet
  facet normal 0.743128 0.66915 0
    outer loop
      vertex 22.9828 22.8143 0
      vertex 23.7218 21.9936 1
      vertex 23.7218 21.9936 0
    endloop
  endfacet
  facet normal 0.682131 -0.73123 0
    outer loop
      vertex 11.2 10.3126 0
      vertex 23.7218 21.9936 1
      vertex 11.2 10.3126 1
    endloop
  endfacet
  facet normal 0.682131 -0.73123 0
    outer loop
      vertex 23.7218 21.9936 1
      vertex 11.2 10.3126 0
      vertex 23.7218 21.9936 0
    endloop
  endfacet
  facet normal 1 -0 0
    outer loop
      vertex 11.2 9.60554 1
      vertex 11.2 10.3126 0
      vertex 11.2 10.3126 1
    endloop
  endfacet
  facet normal 1 0 0
    outer loop
      vertex 11.2 10.3126 0
      vertex 11.2 9.60554 1
      vertex 11.2 9.60554 0
    endloop
  endfacet
  facet normal 0 1 -0
    outer loop
      vertex 11.9071 9.60554 0
      vertex 11.2 9.60554 1
      vertex 11.9071 9.60554 1
    endloop
  endfacet
  facet normal 0 1 0
    outer loop
      vertex 11.2 9.60554 1
      vertex 11.9071 9.60554 0
      vertex 11.2 9.60554 0
    endloop
  endfacet
  facet normal -0.68213 0.731231 0
    outer loop
      vertex 24.3906 21.2508 0
      vertex 11.9071 9.60554 1
      vertex 24.3906 21.2508 1
    endloop
  endfacet
  facet normal -0.68213 0.731231 0
    outer loop
      vertex 11.9071 9.60554 1
      vertex 24.3906 21.2508 0
      vertex 11.9071 9.60554 0
    endloop
  endfacet
endsolid OpenSCAD_Model
