solid OpenSCAD_Model
  facet normal -0.700117 -0.367449 0.612224
    outer loop
      vertex -1.93338 -1.8269 26.1637
      vertex -2.74958 -1.43123 25.4678
      vertex -2.34877 -2.19491 25.4678
    endloop
  endfacet
  facet normal -0.393449 -0.206492 0.895857
    outer loop
      vertex -1.33312 -1.29512 26.5499
      vertex -2.21074 -1.29842 26.1637
      vertex -1.93338 -1.8269 26.1637
    endloop
  endfacet
  facet normal 0.433863 0 0.900979
    outer loop
      vertex 58.345 78 26.5499
      vertex 59.147 -1 26.1637
      vertex 59.147 78 26.1637
    endloop
  endfacet
  facet normal 0.433863 0 0.900979
    outer loop
      vertex 59.147 -1 26.1637
      vertex 58.345 78 26.5499
      vertex 58.345 -1 26.5499
    endloop
  endfacet
  facet normal 0 1 -0
    outer loop
      vertex 58.1411 79.9854 0
      vertex -0.758926 79.9854 24.6
      vertex 58.1411 79.9854 24.6
    endloop
  endfacet
  facet normal 0 1 0
    outer loop
      vertex -0.758926 79.9854 24.6
      vertex 58.1411 79.9854 0
      vertex -0.758926 79.9854 0
    endloop
  endfacet
  facet normal -0.252389 0.365704 0.895858
    outer loop
      vertex -1.44218 79.1659 26.1637
      vertex -1.93338 78.8269 26.1637
      vertex -1.33312 78.2951 26.5499
    endloop
  endfacet
  facet normal 0.332637 -0.294633 0.895848
    outer loop
      vertex 59.0041 -1.5795 26.1637
      vertex 58.2941 -1.20682 26.5499
      vertex 58.6084 -2.02624 26.1637
    endloop
  endfacet
  facet normal -0.864483 0.453721 0.216348
    outer loop
      vertex -2.49702 79.3262 24.6
      vertex -2.94188 78.4786 24.6
      vertex -2.74958 78.4312 25.4678
    endloop
  endfacet
  facet normal 0.431442 0.10639 0.895845
    outer loop
      vertex 59.0041 78.5795 26.1637
      vertex 58.2941 78.2068 26.5499
      vertex 59.147 78 26.1637
    endloop
  endfacet
  facet normal 0.354579 0.935026 -0
    outer loop
      vertex 59.0361 79.646 0
      vertex 58.1411 79.9854 24.6
      vertex 59.0361 79.646 24.6
    endloop
  endfacet
  facet normal 0.354579 0.935026 0
    outer loop
      vertex 58.1411 79.9854 24.6
      vertex 59.0361 79.646 0
      vertex 58.1411 79.9854 0
    endloop
  endfacet
  facet normal -0.885458 -0.464719 0
    outer loop
      vertex -2.49702 -2.32625 0
      vertex -2.94188 -1.47863 24.6
      vertex -2.94188 -1.47863 0
    endloop
  endfacet
  facet normal -0.885458 -0.464719 0
    outer loop
      vertex -2.94188 -1.47863 24.6
      vertex -2.49702 -2.32625 0
      vertex -2.49702 -2.32625 24.6
    endloop
  endfacet
  facet normal 0.947934 -0.233656 0.216393
    outer loop
      vertex 59.7019 -1 25.4678
      vertex 59.6709 -1.92945 24.6
      vertex 59.9 -1 24.6
    endloop
  endfacet
  facet normal -0.449158 -0.650721 0.612225
    outer loop
      vertex -1.44218 -2.16595 26.1637
      vertex -2.34877 -2.19491 25.4678
      vertex -1.63898 -2.68484 25.4678
    endloop
  endfacet
  facet normal 0 -1 0
    outer loop
      vertex -0.758926 -2.98542 0
      vertex 58.1411 -2.98542 24.6
      vertex -0.758926 -2.98542 24.6
    endloop
  endfacet
  facet normal 0 -1 -0
    outer loop
      vertex 58.1411 -2.98542 24.6
      vertex -0.758926 -2.98542 0
      vertex 58.1411 -2.98542 0
    endloop
  endfacet
  facet normal -0.444344 0 0.895856
    outer loop
      vertex -2.21074 78.2984 26.1637
      vertex -1.43211 -1.10651 26.5499
      vertex -1.43211 78.1065 26.5499
    endloop
  endfacet
  facet normal -0.444344 0 0.895856
    outer loop
      vertex -1.43211 -1.10651 26.5499
      vertex -2.21074 78.2984 26.1637
      vertex -2.21074 -1.29842 26.1637
    endloop
  endfacet
  facet normal -1 0 0
    outer loop
      vertex -2.94188 -1.47863 0
      vertex -2.94188 78.4786 24.6
      vertex -2.94188 78.4786 0
    endloop
  endfacet
  facet normal -1 -0 0
    outer loop
      vertex -2.94188 78.4786 24.6
      vertex -2.94188 -1.47863 0
      vertex -2.94188 -1.47863 24.6
    endloop
  endfacet
  facet normal -0.0953052 -0.784921 0.612222
    outer loop
      vertex -0.849692 -2.23789 26.1637
      vertex -1.44218 -2.16595 26.1637
      vertex -0.7828 -2.7888 25.4678
    endloop
  endfacet
  facet normal 0.157497 0.415541 0.895835
    outer loop
      vertex 58.6084 79.0262 26.1637
      vertex 57.9536 78.4418 26.5499
      vertex 58.1528 78.3663 26.5499
    endloop
  endfacet
  facet normal 0.767677 -0.189303 0.612239
    outer loop
      vertex 59.147 -1 26.1637
      vertex 59.0041 -1.5795 26.1637
      vertex 59.4955 -1.8374 25.4678
    endloop
  endfacet
  facet normal -0.700124 0.367429 0.612228
    outer loop
      vertex -1.93338 78.8269 26.1637
      vertex -2.74958 78.4312 25.4678
      vertex -2.21074 78.2984 26.1637
    endloop
  endfacet
  facet normal -0 0.436468 0.89972
    outer loop
      vertex -0.849692 79.2379 26.1637
      vertex 57.9536 78.4418 26.5499
      vertex 58.0503 79.2379 26.1637
    endloop
  endfacet
  facet normal 0 0.436468 0.89972
    outer loop
      vertex 57.9536 78.4418 26.5499
      vertex -0.849692 79.2379 26.1637
      vertex -0.946356 78.4418 26.5499
    endloop
  endfacet
  facet normal -0.120552 0.992707 0
    outer loop
      vertex -0.758926 79.9854 0
      vertex -1.70921 79.87 24.6
      vertex -0.758926 79.9854 24.6
    endloop
  endfacet
  facet normal -0.120552 0.992707 0
    outer loop
      vertex -1.70921 79.87 24.6
      vertex -0.758926 79.9854 0
      vertex -1.70921 79.87 0
    endloop
  endfacet
  facet normal 0.346224 -0.912861 0.216365
    outer loop
      vertex 59.0361 -2.64597 24.6
      vertex 58.1172 -2.7888 25.4678
      vertex 58.1411 -2.98542 24.6
    endloop
  endfacet
  facet normal 0.280415 0.739253 0.612268
    outer loop
      vertex 58.9236 79.483 25.4678
      vertex 58.0503 79.2379 26.1637
      vertex 58.6084 79.0262 26.1637
    endloop
  endfacet
  facet normal 0.591861 0.524288 0.612228
    outer loop
      vertex 58.9236 79.483 25.4678
      vertex 58.6084 79.0262 26.1637
      vertex 59.0041 78.5795 26.1637
    endloop
  endfacet
  facet normal 0 0 1
    outer loop
      vertex 57.9536 78.4418 26.5499
      vertex 58.345 78 26.5499
      vertex 58.2941 78.2068 26.5499
    endloop
  endfacet
  facet normal 0 0 1
    outer loop
      vertex 58.345 78 26.5499
      vertex 54 49.7 26.5499
      vertex 58.345 -1 26.5499
    endloop
  endfacet
  facet normal 0 0 1
    outer loop
      vertex 57.9536 78.4418 26.5499
      vertex 58.2941 78.2068 26.5499
      vertex 58.1528 78.3663 26.5499
    endloop
  endfacet
  facet normal -0 0 1
    outer loop
      vertex 54 6 26.5499
      vertex 58.345 -1 26.5499
      vertex 54 49.7 26.5499
    endloop
  endfacet
  facet normal 0 0 1
    outer loop
      vertex 58.345 78 26.5499
      vertex 57.9536 78.4418 26.5499
      vertex 52.2411 51.6854 26.5499
    endloop
  endfacet
  facet normal -0 0 1
    outer loop
      vertex 53.7709 5.07055 26.5499
      vertex 58.345 -1 26.5499
      vertex 54 6 26.5499
    endloop
  endfacet
  facet normal -0 0 1
    outer loop
      vertex 53.1361 4.35403 26.5499
      vertex 58.345 -1 26.5499
      vertex 53.7709 5.07055 26.5499
    endloop
  endfacet
  facet normal 0 0 1
    outer loop
      vertex 58.345 78 26.5499
      vertex 53.7709 50.6294 26.5499
      vertex 54 49.7 26.5499
    endloop
  endfacet
  facet normal 0 0 1
    outer loop
      vertex 58.345 78 26.5499
      vertex 53.1361 51.346 26.5499
      vertex 53.7709 50.6294 26.5499
    endloop
  endfacet
  facet normal 0 0 1
    outer loop
      vertex 58.345 78 26.5499
      vertex 52.2411 51.6854 26.5499
      vertex 53.1361 51.346 26.5499
    endloop
  endfacet
  facet normal 0 0 1
    outer loop
      vertex 57.9536 78.4418 26.5499
      vertex 5.64107 51.6854 26.5499
      vertex 52.2411 51.6854 26.5499
    endloop
  endfacet
  facet normal -0 0 1
    outer loop
      vertex -0.946356 78.4418 26.5499
      vertex 5.64107 51.6854 26.5499
      vertex 57.9536 78.4418 26.5499
    endloop
  endfacet
  facet normal 0 0 1
    outer loop
      vertex 3.90298 51.0262 26.5499
      vertex -1.43211 78.1065 26.5499
      vertex 3.45812 50.1786 26.5499
    endloop
  endfacet
  facet normal 0 0 1
    outer loop
      vertex 4.69079 51.57 26.5499
      vertex -1.43211 78.1065 26.5499
      vertex 3.90298 51.0262 26.5499
    endloop
  endfacet
  facet normal 0 0 1
    outer loop
      vertex 5.64107 51.6854 26.5499
      vertex -1.43211 78.1065 26.5499
      vertex 4.69079 51.57 26.5499
    endloop
  endfacet
  facet normal -0 0 1
    outer loop
      vertex -1.43211 78.1065 26.5499
      vertex 5.64107 51.6854 26.5499
      vertex -0.946356 78.4418 26.5499
    endloop
  endfacet
  facet normal 0 -0 1
    outer loop
      vertex 57.9536 -1.4418 26.5499
      vertex 58.345 -1 26.5499
      vertex 53.1361 4.35403 26.5499
    endloop
  endfacet
  facet normal 0 0 1
    outer loop
      vertex 58.2941 -1.20682 26.5499
      vertex 57.9536 -1.4418 26.5499
      vertex 58.1528 -1.36626 26.5499
    endloop
  endfacet
  facet normal 0 0 1
    outer loop
      vertex 58.345 -1 26.5499
      vertex 57.9536 -1.4418 26.5499
      vertex 58.2941 -1.20682 26.5499
    endloop
  endfacet
  facet normal -0 0 1
    outer loop
      vertex 52.2411 4.01458 26.5499
      vertex 57.9536 -1.4418 26.5499
      vertex 53.1361 4.35403 26.5499
    endloop
  endfacet
  facet normal -0 0 1
    outer loop
      vertex 5.64107 4.01458 26.5499
      vertex 57.9536 -1.4418 26.5499
      vertex 52.2411 4.01458 26.5499
    endloop
  endfacet
  facet normal 0 0 1
    outer loop
      vertex 5.64107 4.01458 26.5499
      vertex -0.946356 -1.4418 26.5499
      vertex 57.9536 -1.4418 26.5499
    endloop
  endfacet
  facet normal 0 0 1
    outer loop
      vertex 4.69079 4.12997 26.5499
      vertex -0.946356 -1.4418 26.5499
      vertex 5.64107 4.01458 26.5499
    endloop
  endfacet
  facet normal 0 0 1
    outer loop
      vertex 3.90298 4.67375 26.5499
      vertex -0.946356 -1.4418 26.5499
      vertex 4.69079 4.12997 26.5499
    endloop
  endfacet
  facet normal 0 0 1
    outer loop
      vertex -1.43211 -1.10651 26.5499
      vertex 3.90298 4.67375 26.5499
      vertex 3.45812 5.52137 26.5499
    endloop
  endfacet
  facet normal 0 0 1
    outer loop
      vertex -1.43211 -1.10651 26.5499
      vertex 3.45812 50.1786 26.5499
      vertex -1.43211 78.1065 26.5499
    endloop
  endfacet
  facet normal 0 0 1
    outer loop
      vertex -1.43211 78.1065 26.5499
      vertex -0.946356 78.4418 26.5499
      vertex -1.15781 78.4161 26.5499
    endloop
  endfacet
  facet normal 0 0 1
    outer loop
      vertex 3.45812 50.1786 26.5499
      vertex -1.43211 -1.10651 26.5499
      vertex 3.45812 5.52137 26.5499
    endloop
  endfacet
  facet normal 0 0 1
    outer loop
      vertex -1.43211 78.1065 26.5499
      vertex -1.15781 78.4161 26.5499
      vertex -1.33312 78.2951 26.5499
    endloop
  endfacet
  facet normal 0 0 1
    outer loop
      vertex 3.90298 4.67375 26.5499
      vertex -1.43211 -1.10651 26.5499
      vertex -0.946356 -1.4418 26.5499
    endloop
  endfacet
  facet normal 0 0 1
    outer loop
      vertex -0.946356 -1.4418 26.5499
      vertex -1.43211 -1.10651 26.5499
      vertex -1.15781 -1.41612 26.5499
    endloop
  endfacet
  facet normal 0 0 1
    outer loop
      vertex -1.15781 -1.41612 26.5499
      vertex -1.43211 -1.10651 26.5499
      vertex -1.33312 -1.29512 26.5499
    endloop
  endfacet
  facet normal 0.157557 -0.415463 0.895861
    outer loop
      vertex 58.6084 -2.02624 26.1637
      vertex 57.9536 -1.4418 26.5499
      vertex 58.0503 -2.23789 26.1637
    endloop
  endfacet
  facet normal 0.767739 0.18923 0.612183
    outer loop
      vertex 59.4955 78.8374 25.4678
      vertex 59.147 78 26.1637
      vertex 59.7019 78 25.4678
    endloop
  endfacet
  facet normal -0.120541 -0.992708 0
    outer loop
      vertex -1.70921 -2.87003 0
      vertex -0.758926 -2.98542 24.6
      vertex -1.70921 -2.87003 24.6
    endloop
  endfacet
  facet normal -0.120541 -0.992708 -0
    outer loop
      vertex -0.758926 -2.98542 24.6
      vertex -1.70921 -2.87003 0
      vertex -0.758926 -2.98542 0
    endloop
  endfacet
  facet normal 0.332522 -0.294689 0.895873
    outer loop
      vertex 58.2941 -1.20682 26.5499
      vertex 58.1528 -1.36626 26.5499
      vertex 58.6084 -2.02624 26.1637
    endloop
  endfacet
  facet normal 0.354624 -0.935009 0
    outer loop
      vertex 58.1411 -2.98542 0
      vertex 59.0361 -2.64597 24.6
      vertex 58.1411 -2.98542 24.6
    endloop
  endfacet
  facet normal 0.354624 -0.935009 0
    outer loop
      vertex 59.0361 -2.64597 24.6
      vertex 58.1411 -2.98542 0
      vertex 59.0361 -2.64597 0
    endloop
  endfacet
  facet normal 0.43141 0.106184 0.895885
    outer loop
      vertex 59.147 78 26.1637
      vertex 58.2941 78.2068 26.5499
      vertex 58.345 78 26.5499
    endloop
  endfacet
  facet normal -0.885454 0.464727 0
    outer loop
      vertex -2.94188 78.4786 0
      vertex -2.49702 79.3262 24.6
      vertex -2.49702 79.3262 0
    endloop
  endfacet
  facet normal -0.885454 0.464727 0
    outer loop
      vertex -2.49702 79.3262 24.6
      vertex -2.94188 78.4786 0
      vertex -2.94188 78.4786 24.6
    endloop
  endfacet
  facet normal -0.252408 0.3657 0.895854
    outer loop
      vertex -1.15781 78.4161 26.5499
      vertex -1.44218 79.1659 26.1637
      vertex -1.33312 78.2951 26.5499
    endloop
  endfacet
  facet normal -0.0536033 0.441101 0.895855
    outer loop
      vertex -0.849692 79.2379 26.1637
      vertex -1.44218 79.1659 26.1637
      vertex -0.946356 78.4418 26.5499
    endloop
  endfacet
  facet normal -0.393448 -0.206497 0.895856
    outer loop
      vertex -1.43211 -1.10651 26.5499
      vertex -2.21074 -1.29842 26.1637
      vertex -1.33312 -1.29512 26.5499
    endloop
  endfacet
  facet normal 0 -0.436472 0.899718
    outer loop
      vertex 57.9536 -1.4418 26.5499
      vertex -0.849692 -2.23789 26.1637
      vertex 58.0503 -2.23789 26.1637
    endloop
  endfacet
  facet normal 0 -0.436472 0.899718
    outer loop
      vertex -0.849692 -2.23789 26.1637
      vertex 57.9536 -1.4418 26.5499
      vertex -0.946356 -1.4418 26.5499
    endloop
  endfacet
  facet normal 0.748501 -0.663134 0
    outer loop
      vertex 59.0361 -2.64597 24.6
      vertex 59.6709 -1.92945 0
      vertex 59.6709 -1.92945 24.6
    endloop
  endfacet
  facet normal 0.748501 -0.663134 0
    outer loop
      vertex 59.6709 -1.92945 0
      vertex 59.0361 -2.64597 24.6
      vertex 59.0361 -2.64597 0
    endloop
  endfacet
  facet normal -0.117686 -0.969196 0.216356
    outer loop
      vertex -0.7828 -2.7888 25.4678
      vertex -1.70921 -2.87003 24.6
      vertex -0.758926 -2.98542 24.6
    endloop
  endfacet
  facet normal 0.947931 0.233668 0.216392
    outer loop
      vertex 59.9 78 24.6
      vertex 59.6709 78.9294 24.6
      vertex 59.7019 78 25.4678
    endloop
  endfacet
  facet normal 0.947942 0.233646 0.216368
    outer loop
      vertex 59.6709 78.9294 24.6
      vertex 59.4955 78.8374 25.4678
      vertex 59.7019 78 25.4678
    endloop
  endfacet
  facet normal 0.431411 -0.106173 0.895886
    outer loop
      vertex 58.345 -1 26.5499
      vertex 58.2941 -1.20682 26.5499
      vertex 59.147 -1 26.1637
    endloop
  endfacet
  facet normal 0.431444 -0.106391 0.895844
    outer loop
      vertex 59.147 -1 26.1637
      vertex 58.2941 -1.20682 26.5499
      vertex 59.0041 -1.5795 26.1637
    endloop
  endfacet
  facet normal 0.157591 0.415453 0.895859
    outer loop
      vertex 58.0503 79.2379 26.1637
      vertex 57.9536 78.4418 26.5499
      vertex 58.6084 79.0262 26.1637
    endloop
  endfacet
  facet normal 0.332607 0.294654 0.895852
    outer loop
      vertex 58.6084 79.0262 26.1637
      vertex 58.1528 78.3663 26.5499
      vertex 58.2941 78.2068 26.5499
    endloop
  endfacet
  facet normal 0.970939 -0.239327 0
    outer loop
      vertex 59.6709 -1.92945 24.6
      vertex 59.9 -1 0
      vertex 59.9 -1 24.6
    endloop
  endfacet
  facet normal 0.970939 -0.239327 0
    outer loop
      vertex 59.9 -1 0
      vertex 59.6709 -1.92945 24.6
      vertex 59.6709 -1.92945 0
    endloop
  endfacet
  facet normal 0.781865 -0 0.623447
    outer loop
      vertex 59.147 -1 26.1637
      vertex 59.7019 78 25.4678
      vertex 59.147 78 26.1637
    endloop
  endfacet
  facet normal 0.781865 0 0.623447
    outer loop
      vertex 59.7019 78 25.4678
      vertex 59.147 -1 26.1637
      vertex 59.7019 -1 25.4678
    endloop
  endfacet
  facet normal -0.393447 0.206508 0.895854
    outer loop
      vertex -1.33312 78.2951 26.5499
      vertex -2.21074 78.2984 26.1637
      vertex -1.43211 78.1065 26.5499
    endloop
  endfacet
  facet normal -0.393449 0.206485 0.895858
    outer loop
      vertex -1.93338 78.8269 26.1637
      vertex -2.21074 78.2984 26.1637
      vertex -1.33312 78.2951 26.5499
    endloop
  endfacet
  facet normal -0.449136 0.650729 0.612233
    outer loop
      vertex -1.63898 79.6848 25.4678
      vertex -2.34877 79.1949 25.4678
      vertex -1.44218 79.1659 26.1637
    endloop
  endfacet
  facet normal -0.568075 0.822977 0
    outer loop
      vertex -1.70921 79.87 0
      vertex -2.49702 79.3262 24.6
      vertex -1.70921 79.87 24.6
    endloop
  endfacet
  facet normal -0.568075 0.822977 0
    outer loop
      vertex -2.49702 79.3262 24.6
      vertex -1.70921 79.87 0
      vertex -2.49702 79.3262 0
    endloop
  endfacet
  facet normal -0.554624 0.803491 0.216319
    outer loop
      vertex -1.70921 79.87 24.6
      vertex -2.49702 79.3262 24.6
      vertex -2.34877 79.1949 25.4678
    endloop
  endfacet
  facet normal -0.568061 -0.822987 0
    outer loop
      vertex -2.49702 -2.32625 0
      vertex -1.70921 -2.87003 24.6
      vertex -2.49702 -2.32625 24.6
    endloop
  endfacet
  facet normal -0.568061 -0.822987 -0
    outer loop
      vertex -1.70921 -2.87003 24.6
      vertex -2.49702 -2.32625 0
      vertex -1.70921 -2.87003 0
    endloop
  endfacet
  facet normal -0.554609 -0.803493 0.216351
    outer loop
      vertex -1.63898 -2.68484 25.4678
      vertex -2.34877 -2.19491 25.4678
      vertex -1.70921 -2.87003 24.6
    endloop
  endfacet
  facet normal -0 0.784057 0.620689
    outer loop
      vertex -0.7828 79.7888 25.4678
      vertex 58.0503 79.2379 26.1637
      vertex 58.1172 79.7888 25.4678
    endloop
  endfacet
  facet normal 0 0.784057 0.620689
    outer loop
      vertex 58.0503 79.2379 26.1637
      vertex -0.7828 79.7888 25.4678
      vertex -0.849692 79.2379 26.1637
    endloop
  endfacet
  facet normal -0.0953076 -0.784922 0.612221
    outer loop
      vertex -1.44218 -2.16595 26.1637
      vertex -1.63898 -2.68484 25.4678
      vertex -0.7828 -2.7888 25.4678
    endloop
  endfacet
  facet normal -0.252402 -0.36569 0.895859
    outer loop
      vertex -1.33312 -1.29512 26.5499
      vertex -1.44218 -2.16595 26.1637
      vertex -1.15781 -1.41612 26.5499
    endloop
  endfacet
  facet normal -0.864487 -0.453713 0.216348
    outer loop
      vertex -2.74958 -1.43123 25.4678
      vertex -2.94188 -1.47863 24.6
      vertex -2.49702 -2.32625 24.6
    endloop
  endfacet
  facet normal -0.864484 -0.453716 0.216353
    outer loop
      vertex -2.34877 -2.19491 25.4678
      vertex -2.74958 -1.43123 25.4678
      vertex -2.49702 -2.32625 24.6
    endloop
  endfacet
  facet normal -0.554606 -0.803494 0.216353
    outer loop
      vertex -2.34877 -2.19491 25.4678
      vertex -2.49702 -2.32625 24.6
      vertex -1.70921 -2.87003 24.6
    endloop
  endfacet
  facet normal 0 -0.97528 0.220972
    outer loop
      vertex -0.758926 -2.98542 24.6
      vertex 58.1172 -2.7888 25.4678
      vertex -0.7828 -2.7888 25.4678
    endloop
  endfacet
  facet normal 0 -0.97528 0.220972
    outer loop
      vertex 58.1172 -2.7888 25.4678
      vertex -0.758926 -2.98542 24.6
      vertex 58.1411 -2.98542 24.6
    endloop
  endfacet
  facet normal 0.730792 -0.647397 0.216379
    outer loop
      vertex 59.4955 -1.8374 25.4678
      vertex 58.9236 -2.48297 25.4678
      vertex 59.6709 -1.92945 24.6
    endloop
  endfacet
  facet normal 0.591844 -0.524305 0.612229
    outer loop
      vertex 59.0041 -1.5795 26.1637
      vertex 58.9236 -2.48297 25.4678
      vertex 59.4955 -1.8374 25.4678
    endloop
  endfacet
  facet normal 0.974921 -0 0.222553
    outer loop
      vertex 59.7019 -1 25.4678
      vertex 59.9 78 24.6
      vertex 59.7019 78 25.4678
    endloop
  endfacet
  facet normal 0.974921 0 0.222553
    outer loop
      vertex 59.9 78 24.6
      vertex 59.7019 -1 25.4678
      vertex 59.9 -1 24.6
    endloop
  endfacet
  facet normal 0.730811 0.647389 0.216341
    outer loop
      vertex 59.0361 79.646 24.6
      vertex 58.9236 79.483 25.4678
      vertex 59.6709 78.9294 24.6
    endloop
  endfacet
  facet normal 0.332623 0.294647 0.895849
    outer loop
      vertex 58.6084 79.0262 26.1637
      vertex 58.2941 78.2068 26.5499
      vertex 59.0041 78.5795 26.1637
    endloop
  endfacet
  facet normal 1 -0 0
    outer loop
      vertex 59.9 -1 24.6
      vertex 59.9 78 0
      vertex 59.9 78 24.6
    endloop
  endfacet
  facet normal 1 0 0
    outer loop
      vertex 59.9 78 0
      vertex 59.9 -1 24.6
      vertex 59.9 -1 0
    endloop
  endfacet
  facet normal -0.864493 0.453709 0.216332
    outer loop
      vertex -2.49702 79.3262 24.6
      vertex -2.74958 78.4312 25.4678
      vertex -2.34877 79.1949 25.4678
    endloop
  endfacet
  facet normal -0.700123 0.367443 0.612219
    outer loop
      vertex -2.34877 79.1949 25.4678
      vertex -2.74958 78.4312 25.4678
      vertex -1.93338 78.8269 26.1637
    endloop
  endfacet
  facet normal -0.0953851 0.784924 0.612206
    outer loop
      vertex -0.7828 79.7888 25.4678
      vertex -1.44218 79.1659 26.1637
      vertex -0.849692 79.2379 26.1637
    endloop
  endfacet
  facet normal -0.0536107 0.441097 0.895857
    outer loop
      vertex -0.946356 78.4418 26.5499
      vertex -1.44218 79.1659 26.1637
      vertex -1.15781 78.4161 26.5499
    endloop
  endfacet
  facet normal -0.117697 0.969199 0.216334
    outer loop
      vertex -0.758926 79.9854 24.6
      vertex -1.70921 79.87 24.6
      vertex -0.7828 79.7888 25.4678
    endloop
  endfacet
  facet normal -0 0.975285 0.220951
    outer loop
      vertex -0.758926 79.9854 24.6
      vertex 58.1172 79.7888 25.4678
      vertex 58.1411 79.9854 24.6
    endloop
  endfacet
  facet normal 0 0.975285 0.220951
    outer loop
      vertex 58.1172 79.7888 25.4678
      vertex -0.758926 79.9854 24.6
      vertex -0.7828 79.7888 25.4678
    endloop
  endfacet
  facet normal -0.449159 -0.65072 0.612225
    outer loop
      vertex -1.93338 -1.8269 26.1637
      vertex -2.34877 -2.19491 25.4678
      vertex -1.44218 -2.16595 26.1637
    endloop
  endfacet
  facet normal -0.252415 -0.365687 0.895857
    outer loop
      vertex -1.33312 -1.29512 26.5499
      vertex -1.93338 -1.8269 26.1637
      vertex -1.44218 -2.16595 26.1637
    endloop
  endfacet
  facet normal 0 -0.784052 0.620695
    outer loop
      vertex -0.7828 -2.7888 25.4678
      vertex 58.0503 -2.23789 26.1637
      vertex -0.849692 -2.23789 26.1637
    endloop
  endfacet
  facet normal 0 -0.784052 0.620695
    outer loop
      vertex 58.0503 -2.23789 26.1637
      vertex -0.7828 -2.7888 25.4678
      vertex 58.1172 -2.7888 25.4678
    endloop
  endfacet
  facet normal -0.117683 -0.969197 0.216352
    outer loop
      vertex -1.63898 -2.68484 25.4678
      vertex -1.70921 -2.87003 24.6
      vertex -0.7828 -2.7888 25.4678
    endloop
  endfacet
  facet normal -0.700117 -0.367439 0.612229
    outer loop
      vertex -2.21074 -1.29842 26.1637
      vertex -2.74958 -1.43123 25.4678
      vertex -1.93338 -1.8269 26.1637
    endloop
  endfacet
  facet normal -0.79068 0 0.612229
    outer loop
      vertex -2.74958 78.4312 25.4678
      vertex -2.21074 -1.29842 26.1637
      vertex -2.21074 78.2984 26.1637
    endloop
  endfacet
  facet normal -0.79068 0 0.612229
    outer loop
      vertex -2.21074 -1.29842 26.1637
      vertex -2.74958 78.4312 25.4678
      vertex -2.74958 -1.43123 25.4678
    endloop
  endfacet
  facet normal -0.976317 0 0.216347
    outer loop
      vertex -2.94188 78.4786 24.6
      vertex -2.74958 -1.43123 25.4678
      vertex -2.74958 78.4312 25.4678
    endloop
  endfacet
  facet normal -0.976317 0 0.216347
    outer loop
      vertex -2.74958 -1.43123 25.4678
      vertex -2.94188 78.4786 24.6
      vertex -2.94188 -1.47863 24.6
    endloop
  endfacet
  facet normal 0.346209 -0.912871 0.216348
    outer loop
      vertex 58.9236 -2.48297 25.4678
      vertex 58.1172 -2.7888 25.4678
      vertex 59.0361 -2.64597 24.6
    endloop
  endfacet
  facet normal 0.157552 -0.415467 0.895859
    outer loop
      vertex 58.1528 -1.36626 26.5499
      vertex 57.9536 -1.4418 26.5499
      vertex 58.6084 -2.02624 26.1637
    endloop
  endfacet
  facet normal 0.730775 -0.647429 0.216344
    outer loop
      vertex 59.6709 -1.92945 24.6
      vertex 58.9236 -2.48297 25.4678
      vertex 59.0361 -2.64597 24.6
    endloop
  endfacet
  facet normal 0.280383 -0.739302 0.612224
    outer loop
      vertex 58.9236 -2.48297 25.4678
      vertex 58.0503 -2.23789 26.1637
      vertex 58.1172 -2.7888 25.4678
    endloop
  endfacet
  facet normal 0.767739 -0.18923 0.612183
    outer loop
      vertex 59.7019 -1 25.4678
      vertex 59.147 -1 26.1637
      vertex 59.4955 -1.8374 25.4678
    endloop
  endfacet
  facet normal 0.947939 -0.233645 0.216381
    outer loop
      vertex 59.7019 -1 25.4678
      vertex 59.4955 -1.8374 25.4678
      vertex 59.6709 -1.92945 24.6
    endloop
  endfacet
  facet normal 0.730813 0.647385 0.216345
    outer loop
      vertex 59.6709 78.9294 24.6
      vertex 58.9236 79.483 25.4678
      vertex 59.4955 78.8374 25.4678
    endloop
  endfacet
  facet normal 0.767677 0.189303 0.612239
    outer loop
      vertex 59.4955 78.8374 25.4678
      vertex 59.0041 78.5795 26.1637
      vertex 59.147 78 26.1637
    endloop
  endfacet
  facet normal 0.748538 0.663092 0
    outer loop
      vertex 59.6709 78.9294 24.6
      vertex 59.0361 79.646 0
      vertex 59.0361 79.646 24.6
    endloop
  endfacet
  facet normal 0.748538 0.663092 0
    outer loop
      vertex 59.0361 79.646 0
      vertex 59.6709 78.9294 24.6
      vertex 59.6709 78.9294 0
    endloop
  endfacet
  facet normal 0.970936 0.239339 0
    outer loop
      vertex 59.9 78 24.6
      vertex 59.6709 78.9294 0
      vertex 59.6709 78.9294 24.6
    endloop
  endfacet
  facet normal 0.970936 0.239339 0
    outer loop
      vertex 59.6709 78.9294 0
      vertex 59.9 78 24.6
      vertex 59.9 78 0
    endloop
  endfacet
  facet normal 0.591855 0.52429 0.612232
    outer loop
      vertex 59.4955 78.8374 25.4678
      vertex 58.9236 79.483 25.4678
      vertex 59.0041 78.5795 26.1637
    endloop
  endfacet
  facet normal 0.346181 0.912881 0.216347
    outer loop
      vertex 58.1411 79.9854 24.6
      vertex 58.1172 79.7888 25.4678
      vertex 59.0361 79.646 24.6
    endloop
  endfacet
  facet normal -0.554584 0.803507 0.216361
    outer loop
      vertex -1.70921 79.87 24.6
      vertex -2.34877 79.1949 25.4678
      vertex -1.63898 79.6848 25.4678
    endloop
  endfacet
  facet normal -0.449119 0.650759 0.612213
    outer loop
      vertex -1.44218 79.1659 26.1637
      vertex -2.34877 79.1949 25.4678
      vertex -1.93338 78.8269 26.1637
    endloop
  endfacet
  facet normal -0.0535689 -0.441097 0.895859
    outer loop
      vertex -1.15781 -1.41612 26.5499
      vertex -1.44218 -2.16595 26.1637
      vertex -0.946356 -1.4418 26.5499
    endloop
  endfacet
  facet normal 0.280372 -0.739314 0.612215
    outer loop
      vertex 58.6084 -2.02624 26.1637
      vertex 58.0503 -2.23789 26.1637
      vertex 58.9236 -2.48297 25.4678
    endloop
  endfacet
  facet normal 0.591906 -0.524281 0.612191
    outer loop
      vertex 59.0041 -1.5795 26.1637
      vertex 58.6084 -2.02624 26.1637
      vertex 58.9236 -2.48297 25.4678
    endloop
  endfacet
  facet normal -0.0535587 -0.441102 0.895857
    outer loop
      vertex -0.946356 -1.4418 26.5499
      vertex -1.44218 -2.16595 26.1637
      vertex -0.849692 -2.23789 26.1637
    endloop
  endfacet
  facet normal 0.34618 0.912882 0.216346
    outer loop
      vertex 59.0361 79.646 24.6
      vertex 58.1172 79.7888 25.4678
      vertex 58.9236 79.483 25.4678
    endloop
  endfacet
  facet normal 0.28036 0.739314 0.61222
    outer loop
      vertex 58.1172 79.7888 25.4678
      vertex 58.0503 79.2379 26.1637
      vertex 58.9236 79.483 25.4678
    endloop
  endfacet
  facet normal -0.0953427 0.784909 0.612232
    outer loop
      vertex -0.7828 79.7888 25.4678
      vertex -1.63898 79.6848 25.4678
      vertex -1.44218 79.1659 26.1637
    endloop
  endfacet
  facet normal -0.117727 0.969189 0.216365
    outer loop
      vertex -0.7828 79.7888 25.4678
      vertex -1.70921 79.87 24.6
      vertex -1.63898 79.6848 25.4678
    endloop
  endfacet
  facet normal -0.864486 0.453723 0.216333
    outer loop
      vertex 3.90298 51.0262 68.5
      vertex 3.45812 50.1786 68.5
      vertex 4.05123 50.8949 69.3678
    endloop
  endfacet
  facet normal -0.393446 -0.206496 0.895857
    outer loop
      vertex 4.96789 5.89349 70.4499
      vertex 4.46662 5.1731 70.0637
      vertex 5.06688 5.70488 70.4499
    endloop
  endfacet
  facet normal -0.568075 0.822977 0
    outer loop
      vertex 4.69079 51.57 26.5499
      vertex 3.90298 51.0262 68.5
      vertex 4.69079 51.57 68.5
    endloop
  endfacet
  facet normal -0.568075 0.822977 0
    outer loop
      vertex 3.90298 51.0262 68.5
      vertex 4.69079 51.57 26.5499
      vertex 3.90298 51.0262 26.5499
    endloop
  endfacet
  facet normal 0.354624 -0.935009 0
    outer loop
      vertex 52.2411 4.01458 26.5499
      vertex 53.1361 4.35403 68.5
      vertex 52.2411 4.01458 68.5
    endloop
  endfacet
  facet normal 0.354624 -0.935009 0
    outer loop
      vertex 53.1361 4.35403 68.5
      vertex 52.2411 4.01458 26.5499
      vertex 53.1361 4.35403 26.5499
    endloop
  endfacet
  facet normal -0.790686 0 0.612222
    outer loop
      vertex 3.65042 50.1312 69.3678
      vertex 4.18925 5.70158 70.0637
      vertex 4.18925 49.9984 70.0637
    endloop
  endfacet
  facet normal -0.790686 0 0.612222
    outer loop
      vertex 4.18925 5.70158 70.0637
      vertex 3.65042 50.1312 69.3678
      vertex 3.65042 5.56877 69.3678
    endloop
  endfacet
  facet normal -0.700123 0.367443 0.61222
    outer loop
      vertex 4.05123 50.8949 69.3678
      vertex 3.65042 50.1312 69.3678
      vertex 4.18925 49.9984 70.0637
    endloop
  endfacet
  facet normal 0.748538 0.663092 0
    outer loop
      vertex 53.7709 50.6294 68.5
      vertex 53.1361 51.346 26.5499
      vertex 53.1361 51.346 68.5
    endloop
  endfacet
  facet normal 0.748538 0.663092 0
    outer loop
      vertex 53.1361 51.346 26.5499
      vertex 53.7709 50.6294 68.5
      vertex 53.7709 50.6294 26.5499
    endloop
  endfacet
  facet normal 0.354579 0.935026 -0
    outer loop
      vertex 53.1361 51.346 26.5499
      vertex 52.2411 51.6854 68.5
      vertex 53.1361 51.346 68.5
    endloop
  endfacet
  facet normal 0.354579 0.935026 0
    outer loop
      vertex 52.2411 51.6854 68.5
      vertex 53.1361 51.346 26.5499
      vertex 52.2411 51.6854 26.5499
    endloop
  endfacet
  facet normal 0.346181 0.912881 0.216347
    outer loop
      vertex 52.2411 51.6854 68.5
      vertex 52.2172 51.4888 69.3678
      vertex 53.1361 51.346 68.5
    endloop
  endfacet
  facet normal 0.730814 0.647386 0.216341
    outer loop
      vertex 53.1361 51.346 68.5
      vertex 53.0236 51.183 69.3678
      vertex 53.5955 50.5374 69.3678
    endloop
  endfacet
  facet normal 0.970936 0.239339 0
    outer loop
      vertex 54 49.7 68.5
      vertex 53.7709 50.6294 26.5499
      vertex 53.7709 50.6294 68.5
    endloop
  endfacet
  facet normal 0.970936 0.239339 0
    outer loop
      vertex 53.7709 50.6294 26.5499
      vertex 54 49.7 68.5
      vertex 54 49.7 26.5499
    endloop
  endfacet
  facet normal -0 0.784057 0.620689
    outer loop
      vertex 5.6172 51.4888 69.3678
      vertex 52.1503 50.9379 70.0637
      vertex 52.2172 51.4888 69.3678
    endloop
  endfacet
  facet normal 0 0.784057 0.620689
    outer loop
      vertex 52.1503 50.9379 70.0637
      vertex 5.6172 51.4888 69.3678
      vertex 5.55031 50.9379 70.0637
    endloop
  endfacet
  facet normal -0.120552 0.992707 0
    outer loop
      vertex 5.64107 51.6854 26.5499
      vertex 4.69079 51.57 68.5
      vertex 5.64107 51.6854 68.5
    endloop
  endfacet
  facet normal -0.120552 0.992707 0
    outer loop
      vertex 4.69079 51.57 68.5
      vertex 5.64107 51.6854 26.5499
      vertex 4.69079 51.57 26.5499
    endloop
  endfacet
  facet normal -0.44434 0 0.895858
    outer loop
      vertex 4.18925 49.9984 70.0637
      vertex 4.96789 5.89349 70.4499
      vertex 4.96789 49.8065 70.4499
    endloop
  endfacet
  facet normal -0.44434 0 0.895858
    outer loop
      vertex 4.96789 5.89349 70.4499
      vertex 4.18925 49.9984 70.0637
      vertex 4.18925 5.70158 70.0637
    endloop
  endfacet
  facet normal -0.0953804 0.784901 0.612236
    outer loop
      vertex 5.55031 50.9379 70.0637
      vertex 4.76102 51.3848 69.3678
      vertex 4.95781 50.8659 70.0637
    endloop
  endfacet
  facet normal 0.431442 0.10639 0.895845
    outer loop
      vertex 53.1041 50.2795 70.0637
      vertex 52.3941 49.9068 70.4499
      vertex 53.247 49.7 70.0637
    endloop
  endfacet
  facet normal -0.0953077 -0.784922 0.61222
    outer loop
      vertex 4.95781 4.83405 70.0637
      vertex 4.76102 4.31516 69.3678
      vertex 5.6172 4.2112 69.3678
    endloop
  endfacet
  facet normal 0.591906 -0.524281 0.612191
    outer loop
      vertex 53.1041 5.4205 70.0637
      vertex 52.7084 4.97376 70.0637
      vertex 53.0236 4.51703 69.3678
    endloop
  endfacet
  facet normal -0.120542 -0.992708 0
    outer loop
      vertex 4.69079 4.12997 26.5499
      vertex 5.64107 4.01458 68.5
      vertex 4.69079 4.12997 68.5
    endloop
  endfacet
  facet normal -0.120542 -0.992708 -0
    outer loop
      vertex 5.64107 4.01458 68.5
      vertex 4.69079 4.12997 26.5499
      vertex 5.64107 4.01458 26.5499
    endloop
  endfacet
  facet normal 0.767726 0.189315 0.612173
    outer loop
      vertex 53.8019 49.7 69.3678
      vertex 53.1041 50.2795 70.0637
      vertex 53.247 49.7 70.0637
    endloop
  endfacet
  facet normal 0.767705 0.189222 0.612229
    outer loop
      vertex 53.5955 50.5374 69.3678
      vertex 53.1041 50.2795 70.0637
      vertex 53.8019 49.7 69.3678
    endloop
  endfacet
  facet normal -0.55459 0.803516 0.216317
    outer loop
      vertex 4.76102 51.3848 69.3678
      vertex 3.90298 51.0262 68.5
      vertex 4.05123 50.8949 69.3678
    endloop
  endfacet
  facet normal -0.700124 0.367443 0.612219
    outer loop
      vertex 4.46662 50.5269 70.0637
      vertex 4.05123 50.8949 69.3678
      vertex 4.18925 49.9984 70.0637
    endloop
  endfacet
  facet normal 0.947937 0.233645 0.216393
    outer loop
      vertex 54 49.7 68.5
      vertex 53.5955 50.5374 69.3678
      vertex 53.8019 49.7 69.3678
    endloop
  endfacet
  facet normal 0 1 -0
    outer loop
      vertex 52.2411 51.6854 26.5499
      vertex 5.64107 51.6854 68.5
      vertex 52.2411 51.6854 68.5
    endloop
  endfacet
  facet normal 0 1 0
    outer loop
      vertex 5.64107 51.6854 68.5
      vertex 52.2411 51.6854 26.5499
      vertex 5.64107 51.6854 26.5499
    endloop
  endfacet
  facet normal -1 0 0
    outer loop
      vertex 3.45812 5.52137 26.5499
      vertex 3.45812 50.1786 68.5
      vertex 3.45812 50.1786 26.5499
    endloop
  endfacet
  facet normal -1 -0 0
    outer loop
      vertex 3.45812 50.1786 68.5
      vertex 3.45812 5.52137 26.5499
      vertex 3.45812 5.52137 68.5
    endloop
  endfacet
  facet normal -0.885454 0.464727 0
    outer loop
      vertex 3.45812 50.1786 26.5499
      vertex 3.90298 51.0262 68.5
      vertex 3.90298 51.0262 26.5499
    endloop
  endfacet
  facet normal -0.885454 0.464727 0
    outer loop
      vertex 3.90298 51.0262 68.5
      vertex 3.45812 50.1786 26.5499
      vertex 3.45812 50.1786 68.5
    endloop
  endfacet
  facet normal -0.86449 0.453707 0.216348
    outer loop
      vertex 4.05123 50.8949 69.3678
      vertex 3.45812 50.1786 68.5
      vertex 3.65042 50.1312 69.3678
    endloop
  endfacet
  facet normal 0.280372 -0.739314 0.612215
    outer loop
      vertex 52.7084 4.97376 70.0637
      vertex 52.1503 4.76211 70.0637
      vertex 53.0236 4.51703 69.3678
    endloop
  endfacet
  facet normal 0 -1 0
    outer loop
      vertex 5.64107 4.01458 26.5499
      vertex 52.2411 4.01458 68.5
      vertex 5.64107 4.01458 68.5
    endloop
  endfacet
  facet normal 0 -1 -0
    outer loop
      vertex 52.2411 4.01458 68.5
      vertex 5.64107 4.01458 26.5499
      vertex 52.2411 4.01458 26.5499
    endloop
  endfacet
  facet normal -0.700118 -0.36745 0.612222
    outer loop
      vertex 4.18925 5.70158 70.0637
      vertex 3.65042 5.56877 69.3678
      vertex 4.05123 4.80509 69.3678
    endloop
  endfacet
  facet normal 0.346209 -0.912871 0.216348
    outer loop
      vertex 53.0236 4.51703 69.3678
      vertex 52.2172 4.2112 69.3678
      vertex 53.1361 4.35403 68.5
    endloop
  endfacet
  facet normal -0.0953033 -0.784921 0.612223
    outer loop
      vertex 5.55031 4.76211 70.0637
      vertex 4.95781 4.83405 70.0637
      vertex 5.6172 4.2112 69.3678
    endloop
  endfacet
  facet normal -0.449143 0.650739 0.612217
    outer loop
      vertex 4.76102 51.3848 69.3678
      vertex 4.05123 50.8949 69.3678
      vertex 4.46662 50.5269 70.0637
    endloop
  endfacet
  facet normal 0.43141 0.106184 0.895885
    outer loop
      vertex 53.247 49.7 70.0637
      vertex 52.3941 49.9068 70.4499
      vertex 52.445 49.7 70.4499
    endloop
  endfacet
  facet normal 0.947936 0.233669 0.21637
    outer loop
      vertex 53.7709 50.6294 68.5
      vertex 53.5955 50.5374 69.3678
      vertex 54 49.7 68.5
    endloop
  endfacet
  facet normal 0.157471 0.415473 0.895871
    outer loop
      vertex 52.1503 50.9379 70.0637
      vertex 52.0536 50.1418 70.4499
      vertex 52.2528 50.0663 70.4499
    endloop
  endfacet
  facet normal 0.332623 0.294647 0.895849
    outer loop
      vertex 52.7084 50.7262 70.0637
      vertex 52.3941 49.9068 70.4499
      vertex 53.1041 50.2795 70.0637
    endloop
  endfacet
  facet normal -0.252402 0.36569 0.895859
    outer loop
      vertex 5.24219 50.1161 70.4499
      vertex 4.46662 50.5269 70.0637
      vertex 5.06688 49.9951 70.4499
    endloop
  endfacet
  facet normal -0.554619 0.803484 0.216359
    outer loop
      vertex 4.69079 51.57 68.5
      vertex 3.90298 51.0262 68.5
      vertex 4.76102 51.3848 69.3678
    endloop
  endfacet
  facet normal -0.449117 0.650743 0.612232
    outer loop
      vertex 4.76102 51.3848 69.3678
      vertex 4.46662 50.5269 70.0637
      vertex 4.95781 50.8659 70.0637
    endloop
  endfacet
  facet normal -0.976317 0 0.216347
    outer loop
      vertex 3.45812 50.1786 68.5
      vertex 3.65042 5.56877 69.3678
      vertex 3.65042 50.1312 69.3678
    endloop
  endfacet
  facet normal -0.976317 0 0.216347
    outer loop
      vertex 3.65042 5.56877 69.3678
      vertex 3.45812 50.1786 68.5
      vertex 3.45812 5.52137 68.5
    endloop
  endfacet
  facet normal 0 -0.97528 0.220972
    outer loop
      vertex 5.64107 4.01458 68.5
      vertex 52.2172 4.2112 69.3678
      vertex 5.6172 4.2112 69.3678
    endloop
  endfacet
  facet normal 0 -0.97528 0.220972
    outer loop
      vertex 52.2172 4.2112 69.3678
      vertex 5.64107 4.01458 68.5
      vertex 52.2411 4.01458 68.5
    endloop
  endfacet
  facet normal 0.280383 -0.739302 0.612224
    outer loop
      vertex 53.0236 4.51703 69.3678
      vertex 52.1503 4.76211 70.0637
      vertex 52.2172 4.2112 69.3678
    endloop
  endfacet
  facet normal 1 -0 0
    outer loop
      vertex 54 6 68.5
      vertex 54 49.7 26.5499
      vertex 54 49.7 68.5
    endloop
  endfacet
  facet normal 1 0 0
    outer loop
      vertex 54 49.7 26.5499
      vertex 54 6 68.5
      vertex 54 6 26.5499
    endloop
  endfacet
  facet normal 0.947936 -0.233657 0.216382
    outer loop
      vertex 54 6 68.5
      vertex 53.5955 5.1626 69.3678
      vertex 53.7709 5.07055 68.5
    endloop
  endfacet
  facet normal 0.974921 -0 0.222553
    outer loop
      vertex 53.8019 6 69.3678
      vertex 54 49.7 68.5
      vertex 53.8019 49.7 69.3678
    endloop
  endfacet
  facet normal 0.974921 0 0.222553
    outer loop
      vertex 54 49.7 68.5
      vertex 53.8019 6 69.3678
      vertex 54 6 68.5
    endloop
  endfacet
  facet normal -0.117683 -0.969197 0.216352
    outer loop
      vertex 4.76102 4.31516 69.3678
      vertex 4.69079 4.12997 68.5
      vertex 5.6172 4.2112 69.3678
    endloop
  endfacet
  facet normal -0.117687 -0.969195 0.216356
    outer loop
      vertex 5.6172 4.2112 69.3678
      vertex 4.69079 4.12997 68.5
      vertex 5.64107 4.01458 68.5
    endloop
  endfacet
  facet normal 0 -0.784052 0.620695
    outer loop
      vertex 5.6172 4.2112 69.3678
      vertex 52.1503 4.76211 70.0637
      vertex 5.55031 4.76211 70.0637
    endloop
  endfacet
  facet normal 0 -0.784052 0.620695
    outer loop
      vertex 52.1503 4.76211 70.0637
      vertex 5.6172 4.2112 69.3678
      vertex 52.2172 4.2112 69.3678
    endloop
  endfacet
  facet normal -0.554609 -0.803493 0.216351
    outer loop
      vertex 4.76102 4.31516 69.3678
      vertex 4.05123 4.80509 69.3678
      vertex 4.69079 4.12997 68.5
    endloop
  endfacet
  facet normal 0.748501 -0.663134 0
    outer loop
      vertex 53.1361 4.35403 68.5
      vertex 53.7709 5.07055 26.5499
      vertex 53.7709 5.07055 68.5
    endloop
  endfacet
  facet normal 0.748501 -0.663134 0
    outer loop
      vertex 53.7709 5.07055 26.5499
      vertex 53.1361 4.35403 68.5
      vertex 53.1361 4.35403 26.5499
    endloop
  endfacet
  facet normal 0.947937 -0.233645 0.216393
    outer loop
      vertex 53.8019 6 69.3678
      vertex 53.5955 5.1626 69.3678
      vertex 54 6 68.5
    endloop
  endfacet
  facet normal 0.433863 0 0.900979
    outer loop
      vertex 52.445 49.7 70.4499
      vertex 53.247 6 70.0637
      vertex 53.247 49.7 70.0637
    endloop
  endfacet
  facet normal 0.433863 0 0.900979
    outer loop
      vertex 53.247 6 70.0637
      vertex 52.445 49.7 70.4499
      vertex 52.445 6 70.4499
    endloop
  endfacet
  facet normal 0.591858 0.524286 0.612232
    outer loop
      vertex 53.5955 50.5374 69.3678
      vertex 52.7084 50.7262 70.0637
      vertex 53.1041 50.2795 70.0637
    endloop
  endfacet
  facet normal 0.280431 0.739294 0.612211
    outer loop
      vertex 52.2172 51.4888 69.3678
      vertex 52.1503 50.9379 70.0637
      vertex 52.7084 50.7262 70.0637
    endloop
  endfacet
  facet normal -0 0.975285 0.220951
    outer loop
      vertex 5.64107 51.6854 68.5
      vertex 52.2172 51.4888 69.3678
      vertex 52.2411 51.6854 68.5
    endloop
  endfacet
  facet normal 0 0.975285 0.220951
    outer loop
      vertex 52.2172 51.4888 69.3678
      vertex 5.64107 51.6854 68.5
      vertex 5.6172 51.4888 69.3678
    endloop
  endfacet
  facet normal -0.0536019 0.441099 0.895856
    outer loop
      vertex 5.55031 50.9379 70.0637
      vertex 4.95781 50.8659 70.0637
      vertex 5.24219 50.1161 70.4499
    endloop
  endfacet
  facet normal 0.591857 0.524292 0.612228
    outer loop
      vertex 53.0236 51.183 69.3678
      vertex 52.7084 50.7262 70.0637
      vertex 53.5955 50.5374 69.3678
    endloop
  endfacet
  facet normal 0.73081 0.647388 0.216345
    outer loop
      vertex 53.7709 50.6294 68.5
      vertex 53.1361 51.346 68.5
      vertex 53.5955 50.5374 69.3678
    endloop
  endfacet
  facet normal -0.117697 0.969193 0.216364
    outer loop
      vertex 5.64107 51.6854 68.5
      vertex 4.69079 51.57 68.5
      vertex 4.76102 51.3848 69.3678
    endloop
  endfacet
  facet normal -0.885458 -0.464719 0
    outer loop
      vertex 3.90298 4.67375 26.5499
      vertex 3.45812 5.52137 68.5
      vertex 3.45812 5.52137 26.5499
    endloop
  endfacet
  facet normal -0.885458 -0.464719 0
    outer loop
      vertex 3.45812 5.52137 68.5
      vertex 3.90298 4.67375 26.5499
      vertex 3.90298 4.67375 68.5
    endloop
  endfacet
  facet normal 0.970939 -0.239327 0
    outer loop
      vertex 53.7709 5.07055 68.5
      vertex 54 6 26.5499
      vertex 54 6 68.5
    endloop
  endfacet
  facet normal 0.970939 -0.239327 0
    outer loop
      vertex 54 6 26.5499
      vertex 53.7709 5.07055 68.5
      vertex 53.7709 5.07055 26.5499
    endloop
  endfacet
  facet normal 0.730769 -0.647424 0.216377
    outer loop
      vertex 53.5955 5.1626 69.3678
      vertex 53.1361 4.35403 68.5
      vertex 53.7709 5.07055 68.5
    endloop
  endfacet
  facet normal 0.157558 -0.415464 0.89586
    outer loop
      vertex 52.2528 5.63374 70.4499
      vertex 52.1503 4.76211 70.0637
      vertex 52.7084 4.97376 70.0637
    endloop
  endfacet
  facet normal -0.568061 -0.822987 0
    outer loop
      vertex 3.90298 4.67375 26.5499
      vertex 4.69079 4.12997 68.5
      vertex 3.90298 4.67375 68.5
    endloop
  endfacet
  facet normal -0.568061 -0.822987 -0
    outer loop
      vertex 4.69079 4.12997 68.5
      vertex 3.90298 4.67375 26.5499
      vertex 4.69079 4.12997 26.5499
    endloop
  endfacet
  facet normal -0.252418 -0.365684 0.895857
    outer loop
      vertex 5.06688 5.70488 70.4499
      vertex 4.46662 5.1731 70.0637
      vertex 4.95781 4.83405 70.0637
    endloop
  endfacet
  facet normal -0.393444 -0.206497 0.895858
    outer loop
      vertex 4.96789 5.89349 70.4499
      vertex 4.18925 5.70158 70.0637
      vertex 4.46662 5.1731 70.0637
    endloop
  endfacet
  facet normal -0.0535577 -0.441103 0.895857
    outer loop
      vertex 5.45364 5.5582 70.4499
      vertex 4.95781 4.83405 70.0637
      vertex 5.55031 4.76211 70.0637
    endloop
  endfacet
  facet normal 0.346224 -0.912861 0.216365
    outer loop
      vertex 53.1361 4.35403 68.5
      vertex 52.2172 4.2112 69.3678
      vertex 52.2411 4.01458 68.5
    endloop
  endfacet
  facet normal 0.1576 0.415477 0.895847
    outer loop
      vertex 52.7084 50.7262 70.0637
      vertex 52.1503 50.9379 70.0637
      vertex 52.2528 50.0663 70.4499
    endloop
  endfacet
  facet normal 0.332607 0.294654 0.895852
    outer loop
      vertex 52.7084 50.7262 70.0637
      vertex 52.2528 50.0663 70.4499
      vertex 52.3941 49.9068 70.4499
    endloop
  endfacet
  facet normal -0.252394 0.365703 0.895856
    outer loop
      vertex 4.95781 50.8659 70.0637
      vertex 4.46662 50.5269 70.0637
      vertex 5.24219 50.1161 70.4499
    endloop
  endfacet
  facet normal -0.393445 0.20649 0.895859
    outer loop
      vertex 4.46662 50.5269 70.0637
      vertex 4.18925 49.9984 70.0637
      vertex 5.06688 49.9951 70.4499
    endloop
  endfacet
  facet normal 0 0 1
    outer loop
      vertex 52.0536 50.1418 70.4499
      vertex 52.445 49.7 70.4499
      vertex 52.3941 49.9068 70.4499
    endloop
  endfacet
  facet normal -0 0 1
    outer loop
      vertex 5.45364 50.1418 70.4499
      vertex 52.445 49.7 70.4499
      vertex 52.0536 50.1418 70.4499
    endloop
  endfacet
  facet normal 0 0 1
    outer loop
      vertex 52.0536 50.1418 70.4499
      vertex 52.3941 49.9068 70.4499
      vertex 52.2528 50.0663 70.4499
    endloop
  endfacet
  facet normal 0 0 1
    outer loop
      vertex 52.445 49.7 70.4499
      vertex 5.45364 50.1418 70.4499
      vertex 52.445 6 70.4499
    endloop
  endfacet
  facet normal 0 0 1
    outer loop
      vertex 52.445 6 70.4499
      vertex 52.0536 5.5582 70.4499
      vertex 52.3941 5.79318 70.4499
    endloop
  endfacet
  facet normal 0 0 1
    outer loop
      vertex 52.3941 5.79318 70.4499
      vertex 52.0536 5.5582 70.4499
      vertex 52.2528 5.63374 70.4499
    endloop
  endfacet
  facet normal 0 0 1
    outer loop
      vertex 5.45364 5.5582 70.4499
      vertex 52.445 6 70.4499
      vertex 5.45364 50.1418 70.4499
    endloop
  endfacet
  facet normal 0 0 1
    outer loop
      vertex 52.445 6 70.4499
      vertex 5.45364 5.5582 70.4499
      vertex 52.0536 5.5582 70.4499
    endloop
  endfacet
  facet normal 0 0 1
    outer loop
      vertex 4.96789 49.8065 70.4499
      vertex 5.45364 50.1418 70.4499
      vertex 5.24219 50.1161 70.4499
    endloop
  endfacet
  facet normal 0 0 1
    outer loop
      vertex 5.45364 50.1418 70.4499
      vertex 4.96789 49.8065 70.4499
      vertex 5.45364 5.5582 70.4499
    endloop
  endfacet
  facet normal 0 0 1
    outer loop
      vertex 4.96789 49.8065 70.4499
      vertex 5.24219 50.1161 70.4499
      vertex 5.06688 49.9951 70.4499
    endloop
  endfacet
  facet normal -0 0 1
    outer loop
      vertex 4.96789 5.89349 70.4499
      vertex 5.45364 5.5582 70.4499
      vertex 4.96789 49.8065 70.4499
    endloop
  endfacet
  facet normal 0 0 1
    outer loop
      vertex 5.45364 5.5582 70.4499
      vertex 4.96789 5.89349 70.4499
      vertex 5.24219 5.58388 70.4499
    endloop
  endfacet
  facet normal 0 0 1
    outer loop
      vertex 5.24219 5.58388 70.4499
      vertex 4.96789 5.89349 70.4499
      vertex 5.06688 5.70488 70.4499
    endloop
  endfacet
  facet normal 0.34618 0.912882 0.216346
    outer loop
      vertex 53.1361 51.346 68.5
      vertex 52.2172 51.4888 69.3678
      vertex 53.0236 51.183 69.3678
    endloop
  endfacet
  facet normal 0.280349 0.739285 0.61226
    outer loop
      vertex 53.0236 51.183 69.3678
      vertex 52.2172 51.4888 69.3678
      vertex 52.7084 50.7262 70.0637
    endloop
  endfacet
  facet normal -0.117728 0.969196 0.216333
    outer loop
      vertex 5.64107 51.6854 68.5
      vertex 4.76102 51.3848 69.3678
      vertex 5.6172 51.4888 69.3678
    endloop
  endfacet
  facet normal -0.0953447 0.784925 0.612211
    outer loop
      vertex 5.6172 51.4888 69.3678
      vertex 4.76102 51.3848 69.3678
      vertex 5.55031 50.9379 70.0637
    endloop
  endfacet
  facet normal -0.554606 -0.803494 0.216353
    outer loop
      vertex 4.05123 4.80509 69.3678
      vertex 3.90298 4.67375 68.5
      vertex 4.69079 4.12997 68.5
    endloop
  endfacet
  facet normal -0.44916 -0.650724 0.612221
    outer loop
      vertex 4.95781 4.83405 70.0637
      vertex 4.05123 4.80509 69.3678
      vertex 4.76102 4.31516 69.3678
    endloop
  endfacet
  facet normal 0.730798 -0.647402 0.216342
    outer loop
      vertex 53.5955 5.1626 69.3678
      vertex 53.0236 4.51703 69.3678
      vertex 53.1361 4.35403 68.5
    endloop
  endfacet
  facet normal 0.781865 -0 0.623447
    outer loop
      vertex 53.247 6 70.0637
      vertex 53.8019 49.7 69.3678
      vertex 53.247 49.7 70.0637
    endloop
  endfacet
  facet normal 0.781865 0 0.623447
    outer loop
      vertex 53.8019 49.7 69.3678
      vertex 53.247 6 70.0637
      vertex 53.8019 6 69.3678
    endloop
  endfacet
  facet normal 0.767726 -0.189315 0.612173
    outer loop
      vertex 53.247 6 70.0637
      vertex 53.1041 5.4205 70.0637
      vertex 53.8019 6 69.3678
    endloop
  endfacet
  facet normal 0.431401 -0.10638 0.895866
    outer loop
      vertex 53.247 6 70.0637
      vertex 52.445 6 70.4499
      vertex 53.1041 5.4205 70.0637
    endloop
  endfacet
  facet normal -0.864485 -0.453717 0.216348
    outer loop
      vertex 3.65042 5.56877 69.3678
      vertex 3.45812 5.52137 68.5
      vertex 4.05123 4.80509 69.3678
    endloop
  endfacet
  facet normal -0.864487 -0.453712 0.216352
    outer loop
      vertex 4.05123 4.80509 69.3678
      vertex 3.45812 5.52137 68.5
      vertex 3.90298 4.67375 68.5
    endloop
  endfacet
  facet normal 0 -0.436472 0.899718
    outer loop
      vertex 52.0536 5.5582 70.4499
      vertex 5.55031 4.76211 70.0637
      vertex 52.1503 4.76211 70.0637
    endloop
  endfacet
  facet normal 0 -0.436472 0.899718
    outer loop
      vertex 5.55031 4.76211 70.0637
      vertex 52.0536 5.5582 70.4499
      vertex 5.45364 5.5582 70.4499
    endloop
  endfacet
  facet normal -0 0.436468 0.89972
    outer loop
      vertex 5.55031 50.9379 70.0637
      vertex 52.0536 50.1418 70.4499
      vertex 52.1503 50.9379 70.0637
    endloop
  endfacet
  facet normal 0 0.436468 0.89972
    outer loop
      vertex 52.0536 50.1418 70.4499
      vertex 5.55031 50.9379 70.0637
      vertex 5.45364 50.1418 70.4499
    endloop
  endfacet
  facet normal -0.393444 0.206506 0.895856
    outer loop
      vertex 5.06688 49.9951 70.4499
      vertex 4.18925 49.9984 70.0637
      vertex 4.96789 49.8065 70.4499
    endloop
  endfacet
  facet normal -0.449164 -0.650715 0.612226
    outer loop
      vertex 4.46662 5.1731 70.0637
      vertex 4.05123 4.80509 69.3678
      vertex 4.95781 4.83405 70.0637
    endloop
  endfacet
  facet normal -0.700115 -0.367452 0.612224
    outer loop
      vertex 4.18925 5.70158 70.0637
      vertex 4.05123 4.80509 69.3678
      vertex 4.46662 5.1731 70.0637
    endloop
  endfacet
  facet normal 0.767705 -0.189222 0.612229
    outer loop
      vertex 53.8019 6 69.3678
      vertex 53.1041 5.4205 70.0637
      vertex 53.5955 5.1626 69.3678
    endloop
  endfacet
  facet normal 0.591844 -0.524305 0.612229
    outer loop
      vertex 53.1041 5.4205 70.0637
      vertex 53.0236 4.51703 69.3678
      vertex 53.5955 5.1626 69.3678
    endloop
  endfacet
  facet normal 0.431532 -0.106203 0.895824
    outer loop
      vertex 52.445 6 70.4499
      vertex 52.3941 5.79318 70.4499
      vertex 53.1041 5.4205 70.0637
    endloop
  endfacet
  facet normal -0.0535698 -0.441096 0.89586
    outer loop
      vertex 5.24219 5.58388 70.4499
      vertex 4.95781 4.83405 70.0637
      vertex 5.45364 5.5582 70.4499
    endloop
  endfacet
  facet normal 0.157551 -0.415464 0.895861
    outer loop
      vertex 52.2528 5.63374 70.4499
      vertex 52.0536 5.5582 70.4499
      vertex 52.1503 4.76211 70.0637
    endloop
  endfacet
  facet normal -0.0536123 0.441102 0.895854
    outer loop
      vertex 5.55031 50.9379 70.0637
      vertex 5.24219 50.1161 70.4499
      vertex 5.45364 50.1418 70.4499
    endloop
  endfacet
  facet normal 0.332576 -0.294738 0.895836
    outer loop
      vertex 52.3941 5.79318 70.4499
      vertex 52.2528 5.63374 70.4499
      vertex 53.1041 5.4205 70.0637
    endloop
  endfacet
  facet normal 0.332618 -0.294616 0.895861
    outer loop
      vertex 53.1041 5.4205 70.0637
      vertex 52.2528 5.63374 70.4499
      vertex 52.7084 4.97376 70.0637
    endloop
  endfacet
  facet normal -0.2524 -0.365688 0.895861
    outer loop
      vertex 5.06688 5.70488 70.4499
      vertex 4.95781 4.83405 70.0637
      vertex 5.24219 5.58388 70.4499
    endloop
  endfacet
  facet normal -1 0 0
    outer loop
      vertex 57.9 -1 0
      vertex 57.9 78 24.6
      vertex 57.9 78 0
    endloop
  endfacet
  facet normal -1 -0 0
    outer loop
      vertex 57.9 78 24.6
      vertex 57.9 -1 0
      vertex 57.9 -1 24.6
    endloop
  endfacet
  facet normal 0 0 -1
    outer loop
      vertex 54 51.6959 24.6
      vertex 57.9 -1 24.6
      vertex 54 4.00406 24.6
    endloop
  endfacet
  facet normal 0 0 -1
    outer loop
      vertex 57.9 -1 24.6
      vertex 3.4 4.00406 24.6
      vertex 54 4.00406 24.6
    endloop
  endfacet
  facet normal -0 0 -1
    outer loop
      vertex 3.4 4.00406 24.6
      vertex -1 -1 24.6
      vertex 3.4 51.6959 24.6
    endloop
  endfacet
  facet normal 0 0 -1
    outer loop
      vertex -1 -1 24.6
      vertex 3.4 4.00406 24.6
      vertex 57.9 -1 24.6
    endloop
  endfacet
  facet normal 0 0 -1
    outer loop
      vertex 57.9 -1 24.6
      vertex 54 51.6959 24.6
      vertex 57.9 78 24.6
    endloop
  endfacet
  facet normal 0 0 -1
    outer loop
      vertex 3.4 51.6959 24.6
      vertex 57.9 78 24.6
      vertex 54 51.6959 24.6
    endloop
  endfacet
  facet normal 0 0 -1
    outer loop
      vertex 3.4 51.6959 24.6
      vertex -1 78 24.6
      vertex 57.9 78 24.6
    endloop
  endfacet
  facet normal 0 0 -1
    outer loop
      vertex -1 78 24.6
      vertex 3.4 51.6959 24.6
      vertex -1 -1 24.6
    endloop
  endfacet
  facet normal 0 -1 0
    outer loop
      vertex -1 78 0
      vertex 57.9 78 24.6
      vertex -1 78 24.6
    endloop
  endfacet
  facet normal 0 -1 -0
    outer loop
      vertex 57.9 78 24.6
      vertex -1 78 0
      vertex 57.9 78 0
    endloop
  endfacet
  facet normal 0 1 -0
    outer loop
      vertex 57.9 -1 0
      vertex -1 -1 24.6
      vertex 57.9 -1 24.6
    endloop
  endfacet
  facet normal 0 1 0
    outer loop
      vertex -1 -1 24.6
      vertex 57.9 -1 0
      vertex -1 -1 0
    endloop
  endfacet
  facet normal 1 -0 0
    outer loop
      vertex -1 -1 24.6
      vertex -1 78 0
      vertex -1 78 24.6
    endloop
  endfacet
  facet normal 1 0 0
    outer loop
      vertex -1 78 0
      vertex -1 -1 24.6
      vertex -1 -1 0
    endloop
  endfacet
  facet normal 0 0 -1
    outer loop
      vertex 5.4 6 68.5
      vertex 52 49.7 68.5
      vertex 52 6 68.5
    endloop
  endfacet
  facet normal -0 0 -1
    outer loop
      vertex 52 49.7 68.5
      vertex 5.4 6 68.5
      vertex 5.4 49.7 68.5
    endloop
  endfacet
  facet normal 0 -1 0
    outer loop
      vertex 5.4 49.7 68.5
      vertex 5.4 49.7 26.599
      vertex 52 49.7 68.5
    endloop
  endfacet
  facet normal 0 -1 -0
    outer loop
      vertex 52 49.7 68.5
      vertex 5.4 49.7 26.599
      vertex 52 49.7 26.599
    endloop
  endfacet
  facet normal 0 1 -0
    outer loop
      vertex 52 6 26.599
      vertex 5.4 6 68.5
      vertex 52 6 68.5
    endloop
  endfacet
  facet normal 0 1 0
    outer loop
      vertex 5.4 6 26.599
      vertex 5.4 6 68.5
      vertex 52 6 26.599
    endloop
  endfacet
  facet normal -1 0 0
    outer loop
      vertex 52 6 26.599
      vertex 52 49.7 68.5
      vertex 52 49.7 26.599
    endloop
  endfacet
  facet normal -1 -0 0
    outer loop
      vertex 52 49.7 68.5
      vertex 52 6 26.599
      vertex 52 6 68.5
    endloop
  endfacet
  facet normal 1 -0 0
    outer loop
      vertex 5.4 6 68.5
      vertex 5.4 49.7 26.599
      vertex 5.4 49.7 68.5
    endloop
  endfacet
  facet normal 1 0 0
    outer loop
      vertex 5.4 49.7 26.599
      vertex 5.4 6 68.5
      vertex 5.4 6 26.599
    endloop
  endfacet
  facet normal 1 -0 0
    outer loop
      vertex 3.4 4.17792 24.6429
      vertex 3.4 51.6959 24.6
      vertex 3.4 51.5221 24.6429
    endloop
  endfacet
  facet normal 1 0 0
    outer loop
      vertex 3.4 51.6959 24.6
      vertex 3.4 4.17792 24.6429
      vertex 3.4 4.00406 24.6
    endloop
  endfacet
  facet normal 0 0 -1
    outer loop
      vertex 52.0581 5.95615 26.599
      vertex 52 6 26.599
      vertex 52.0581 49.7439 26.599
    endloop
  endfacet
  facet normal 0 0 -1
    outer loop
      vertex 5.4 5.95615 26.599
      vertex 52 6 26.599
      vertex 52.0581 5.95615 26.599
    endloop
  endfacet
  facet normal -0 0 -1
    outer loop
      vertex 52 6 26.599
      vertex 5.4 5.95615 26.599
      vertex 5.4 6 26.599
    endloop
  endfacet
  facet normal 0 0 -1
    outer loop
      vertex 52 49.7 26.599
      vertex 52.0581 49.7439 26.599
      vertex 52 6 26.599
    endloop
  endfacet
  facet normal 0 0 -1
    outer loop
      vertex 5.4 49.7439 26.599
      vertex 52 49.7 26.599
      vertex 5.4 49.7 26.599
    endloop
  endfacet
  facet normal 0 0 -1
    outer loop
      vertex 52 49.7 26.599
      vertex 5.4 49.7439 26.599
      vertex 52.0581 49.7439 26.599
    endloop
  endfacet
  facet normal -1 0 0
    outer loop
      vertex 54 51.6959 24.6
      vertex 54 4.17792 24.6429
      vertex 54 51.5221 24.6429
    endloop
  endfacet
  facet normal -1 0 -0
    outer loop
      vertex 54 4.17792 24.6429
      vertex 54 51.6959 24.6
      vertex 54 4.00406 24.6
    endloop
  endfacet
  facet normal 0.000150048 0.239565 -0.97088
    outer loop
      vertex 54 4.00406 24.6
      vertex 53.2908 4.5273 24.729
      vertex 54 4.17792 24.6429
    endloop
  endfacet
  facet normal 0 0.239268 -0.970954
    outer loop
      vertex 53.2908 4.5273 24.729
      vertex 4.20668 4.92945 24.8281
      vertex 53.1472 4.92945 24.8281
    endloop
  endfacet
  facet normal -3.01271e-07 0.239373 -0.970928
    outer loop
      vertex 3.64107 4.05916 24.6136
      vertex 53.2908 4.5273 24.729
      vertex 54 4.00406 24.6
    endloop
  endfacet
  facet normal 3.48994e-07 0.239308 -0.970944
    outer loop
      vertex 53.2908 4.5273 24.729
      vertex 3.64107 4.05916 24.6136
      vertex 4.20668 4.92945 24.8281
    endloop
  endfacet
  facet normal 0 0.239632 -0.970864
    outer loop
      vertex 3.4 4.00406 24.6
      vertex 3.64107 4.05916 24.6136
      vertex 54 4.00406 24.6
    endloop
  endfacet
  facet normal 1.63541e-05 0.239565 -0.97088
    outer loop
      vertex 3.64107 4.05916 24.6136
      vertex 3.4 4.00406 24.6
      vertex 3.4 4.17792 24.6429
    endloop
  endfacet
  facet normal 0 0.992711 0.120517
    outer loop
      vertex 52.0581 5.98542 26.3579
      vertex 5.4 5.95615 26.599
      vertex 52.0581 5.95615 26.599
    endloop
  endfacet
  facet normal 0 0.992711 0.120517
    outer loop
      vertex 5.4 5.95615 26.599
      vertex 52.0581 5.98542 26.3579
      vertex 5.34058 5.98542 26.3579
    endloop
  endfacet
  facet normal 0 0.663086 -0.748544
    outer loop
      vertex 52.503 5.43137 25.2728
      vertex 4.98781 5.64597 25.4629
      vertex 52.4032 5.64597 25.4629
    endloop
  endfacet
  facet normal 8.07756e-07 0.663155 -0.748482
    outer loop
      vertex 4.53613 5.07048 24.953
      vertex 52.503 5.43137 25.2728
      vertex 53.1472 4.92945 24.8281
    endloop
  endfacet
  facet normal 6.51633e-07 0.663166 -0.748472
    outer loop
      vertex 52.503 5.43137 25.2728
      vertex 4.53613 5.07048 24.953
      vertex 4.98781 5.64597 25.4629
    endloop
  endfacet
  facet normal 0 0.662999 -0.748621
    outer loop
      vertex 4.53613 5.07048 24.953
      vertex 53.1472 4.92945 24.8281
      vertex 4.20668 4.92945 24.8281
    endloop
  endfacet
  facet normal 0 0.93498 -0.354702
    outer loop
      vertex 52.0581 5.89532 26.1204
      vertex 5.34058 5.98542 26.3579
      vertex 52.0581 5.98542 26.3579
    endloop
  endfacet
  facet normal 3.39924e-07 0.935002 -0.354643
    outer loop
      vertex 52.0581 5.89532 26.1204
      vertex 5.17091 5.72435 25.6696
      vertex 5.34058 5.98542 26.3579
    endloop
  endfacet
  facet normal -1.74879e-07 0.935019 -0.354596
    outer loop
      vertex 52.4032 5.64597 25.4629
      vertex 5.17091 5.72435 25.6696
      vertex 52.0581 5.89532 26.1204
    endloop
  endfacet
  facet normal 0 0.935033 -0.354562
    outer loop
      vertex 5.17091 5.72435 25.6696
      vertex 52.4032 5.64597 25.4629
      vertex 4.98781 5.64597 25.4629
    endloop
  endfacet
  facet normal 0 -0.93498 -0.354702
    outer loop
      vertex 5.34058 49.7146 26.3579
      vertex 52.0581 49.8047 26.1204
      vertex 52.0581 49.7146 26.3579
    endloop
  endfacet
  facet normal 8.22758e-07 -0.935033 -0.35456
    outer loop
      vertex 5.17091 49.9756 25.6696
      vertex 52.0581 49.8047 26.1204
      vertex 5.34058 49.7146 26.3579
    endloop
  endfacet
  facet normal -0 -0.935003 -0.354641
    outer loop
      vertex 52.4032 50.054 25.4629
      vertex 5.17091 49.9756 25.6696
      vertex 4.98781 50.054 25.4629
    endloop
  endfacet
  facet normal 5.33855e-07 -0.935043 -0.354534
    outer loop
      vertex 5.17091 49.9756 25.6696
      vertex 52.4032 50.054 25.4629
      vertex 52.0581 49.8047 26.1204
    endloop
  endfacet
  facet normal 0.000197545 -0.239643 -0.970861
    outer loop
      vertex 53.2908 51.1727 24.729
      vertex 54 51.6959 24.6
      vertex 54 51.5221 24.6429
    endloop
  endfacet
  facet normal 0 -0.239296 -0.970947
    outer loop
      vertex 4.20668 50.7706 24.8281
      vertex 53.2908 51.1727 24.729
      vertex 53.1472 50.7706 24.8281
    endloop
  endfacet
  facet normal 3.08192e-07 -0.239331 -0.970938
    outer loop
      vertex 3.64107 51.6408 24.6136
      vertex 53.2908 51.1727 24.729
      vertex 4.20668 50.7706 24.8281
    endloop
  endfacet
  facet normal -2.81216e-07 -0.23939 -0.970923
    outer loop
      vertex 53.2908 51.1727 24.729
      vertex 3.64107 51.6408 24.6136
      vertex 54 51.6959 24.6
    endloop
  endfacet
  facet normal 0 -0.239632 -0.970864
    outer loop
      vertex 3.64107 51.6408 24.6136
      vertex 3.4 51.6959 24.6
      vertex 54 51.6959 24.6
    endloop
  endfacet
  facet normal -2.54892e-06 -0.239643 -0.970861
    outer loop
      vertex 3.4 51.6959 24.6
      vertex 3.64107 51.6408 24.6136
      vertex 3.4 51.5221 24.6429
    endloop
  endfacet
  facet normal 0 -0.663086 -0.748544
    outer loop
      vertex 4.98781 50.054 25.4629
      vertex 52.503 50.2686 25.2728
      vertex 52.4032 50.054 25.4629
    endloop
  endfacet
  facet normal 5.99777e-07 -0.66316 -0.748478
    outer loop
      vertex 4.53613 50.6295 24.953
      vertex 52.503 50.2686 25.2728
      vertex 4.98781 50.054 25.4629
    endloop
  endfacet
  facet normal 1.45847e-06 -0.663096 -0.748534
    outer loop
      vertex 52.503 50.2686 25.2728
      vertex 4.53613 50.6295 24.953
      vertex 53.1472 50.7706 24.8281
    endloop
  endfacet
  facet normal -0 -0.662814 -0.748784
    outer loop
      vertex 53.1472 50.7706 24.8281
      vertex 4.53613 50.6295 24.953
      vertex 4.20668 50.7706 24.8281
    endloop
  endfacet
  facet normal 0 -0.992696 0.120639
    outer loop
      vertex 52.0581 49.7146 26.3579
      vertex 5.4 49.7439 26.599
      vertex 5.34058 49.7146 26.3579
    endloop
  endfacet
  facet normal 0 -0.992696 0.120639
    outer loop
      vertex 5.4 49.7439 26.599
      vertex 52.0581 49.7146 26.3579
      vertex 52.0581 49.7439 26.599
    endloop
  endfacet
  facet normal 0.970947 0 -0.239294
    outer loop
      vertex 5.4 6 26.599
      vertex 5.4 5.95615 26.599
      vertex 5.34058 5.98542 26.3579
    endloop
  endfacet
  facet normal 0.970947 0 -0.239294
    outer loop
      vertex 5.4 49.7439 26.599
      vertex 5.4 49.7 26.599
      vertex 5.34058 49.7146 26.3579
    endloop
  endfacet
  facet normal 0.970947 0 -0.239294
    outer loop
      vertex 5.4 6 26.599
      vertex 5.34058 49.7146 26.3579
      vertex 5.4 49.7 26.599
    endloop
  endfacet
  facet normal 0.970947 0 -0.239294
    outer loop
      vertex 5.34058 5.98542 26.3579
      vertex 5.34058 49.7146 26.3579
      vertex 5.4 6 26.599
    endloop
  endfacet
  facet normal 0.970935 0 -0.239341
    outer loop
      vertex 5.34058 49.7146 26.3579
      vertex 5.34058 5.98542 26.3579
      vertex 5.17091 49.9756 25.6696
    endloop
  endfacet
  facet normal 0.970935 0 -0.239341
    outer loop
      vertex 5.17091 49.9756 25.6696
      vertex 5.34058 5.98542 26.3579
      vertex 5.17091 5.72435 25.6696
    endloop
  endfacet
  facet normal -0.120654 0 -0.992695
    outer loop
      vertex 3.4 4.17792 24.6429
      vertex 3.64107 51.6408 24.6136
      vertex 3.64107 4.05916 24.6136
    endloop
  endfacet
  facet normal -0.120654 0 -0.992695
    outer loop
      vertex 3.64107 51.6408 24.6136
      vertex 3.4 4.17792 24.6429
      vertex 3.4 51.5221 24.6429
    endloop
  endfacet
  facet normal 0.748547 0 -0.663082
    outer loop
      vertex 5.17091 5.72435 25.6696
      vertex 4.98781 50.054 25.4629
      vertex 5.17091 49.9756 25.6696
    endloop
  endfacet
  facet normal 0.748547 0 -0.663082
    outer loop
      vertex 4.98781 5.64597 25.4629
      vertex 4.98781 50.054 25.4629
      vertex 5.17091 5.72435 25.6696
    endloop
  endfacet
  facet normal 0.748549 0 -0.66308
    outer loop
      vertex 4.98781 50.054 25.4629
      vertex 4.98781 5.64597 25.4629
      vertex 4.53613 50.6295 24.953
    endloop
  endfacet
  facet normal 0.748549 0 -0.66308
    outer loop
      vertex 4.53613 50.6295 24.953
      vertex 4.98781 5.64597 25.4629
      vertex 4.53613 5.07048 24.953
    endloop
  endfacet
  facet normal 0.354496 0 -0.935058
    outer loop
      vertex 4.20668 4.92945 24.8281
      vertex 4.53613 50.6295 24.953
      vertex 4.53613 5.07048 24.953
    endloop
  endfacet
  facet normal 0.354496 0 -0.935058
    outer loop
      vertex 4.20668 4.92945 24.8281
      vertex 4.20668 50.7706 24.8281
      vertex 4.53613 50.6295 24.953
    endloop
  endfacet
  facet normal 0.354594 0 -0.93502
    outer loop
      vertex 3.64107 4.05916 24.6136
      vertex 4.20668 50.7706 24.8281
      vertex 4.20668 4.92945 24.8281
    endloop
  endfacet
  facet normal 0.354594 0 -0.93502
    outer loop
      vertex 4.20668 50.7706 24.8281
      vertex 3.64107 4.05916 24.6136
      vertex 3.64107 51.6408 24.6136
    endloop
  endfacet
  facet normal -1 0 0
    outer loop
      vertex 52.0581 49.8047 26.1204
      vertex 52.0581 5.98542 26.3579
      vertex 52.0581 49.7146 26.3579
    endloop
  endfacet
  facet normal -1 0 -0
    outer loop
      vertex 52.0581 5.98542 26.3579
      vertex 52.0581 49.8047 26.1204
      vertex 52.0581 5.89532 26.1204
    endloop
  endfacet
  facet normal -1 0 0
    outer loop
      vertex 52.0581 5.98542 26.3579
      vertex 52.0581 49.7439 26.599
      vertex 52.0581 49.7146 26.3579
    endloop
  endfacet
  facet normal -1 -0 0
    outer loop
      vertex 52.0581 49.7439 26.599
      vertex 52.0581 5.98542 26.3579
      vertex 52.0581 5.95615 26.599
    endloop
  endfacet
  facet normal -0.120519 0 -0.992711
    outer loop
      vertex 53.2908 4.5273 24.729
      vertex 54 51.5221 24.6429
      vertex 54 4.17792 24.6429
    endloop
  endfacet
  facet normal -0.120519 0 -0.992711
    outer loop
      vertex 54 51.5221 24.6429
      vertex 53.2908 4.5273 24.729
      vertex 53.2908 51.1727 24.729
    endloop
  endfacet
  facet normal -0.567987 0 -0.823037
    outer loop
      vertex 53.1472 4.92945 24.8281
      vertex 53.2908 51.1727 24.729
      vertex 53.2908 4.5273 24.729
    endloop
  endfacet
  facet normal -0.567987 0 -0.823037
    outer loop
      vertex 53.1472 4.92945 24.8281
      vertex 53.1472 50.7706 24.8281
      vertex 53.2908 51.1727 24.729
    endloop
  endfacet
  facet normal -0.5681 0 -0.822959
    outer loop
      vertex 52.503 5.43137 25.2728
      vertex 53.1472 50.7706 24.8281
      vertex 53.1472 4.92945 24.8281
    endloop
  endfacet
  facet normal -0.5681 0 -0.822959
    outer loop
      vertex 53.1472 50.7706 24.8281
      vertex 52.503 5.43137 25.2728
      vertex 52.503 50.2686 25.2728
    endloop
  endfacet
  facet normal -0.885446 0 -0.464742
    outer loop
      vertex 52.4032 50.054 25.4629
      vertex 52.0581 5.89532 26.1204
      vertex 52.0581 49.8047 26.1204
    endloop
  endfacet
  facet normal -0.885403 0 -0.464825
    outer loop
      vertex 52.4032 5.64597 25.4629
      vertex 52.4032 50.054 25.4629
      vertex 52.503 50.2686 25.2728
    endloop
  endfacet
  facet normal -0.885446 -0 -0.464742
    outer loop
      vertex 52.4032 50.054 25.4629
      vertex 52.4032 5.64597 25.4629
      vertex 52.0581 5.89532 26.1204
    endloop
  endfacet
  facet normal -0.885403 0 -0.464825
    outer loop
      vertex 52.4032 5.64597 25.4629
      vertex 52.503 50.2686 25.2728
      vertex 52.503 5.43137 25.2728
    endloop
  endfacet
  facet normal 0 0 -1
    outer loop
      vertex 57.9 -1 0
      vertex 59.9 -1 0
      vertex 59.6709 -1.92945 0
    endloop
  endfacet
  facet normal 0 0 -1
    outer loop
      vertex 59.9 -1 0
      vertex 57.9 -1 0
      vertex 59.9 78 0
    endloop
  endfacet
  facet normal 0 0 -1
    outer loop
      vertex 57.9 -1 0
      vertex 59.6709 -1.92945 0
      vertex 59.0361 -2.64597 0
    endloop
  endfacet
  facet normal 0 0 -1
    outer loop
      vertex 57.9 78 0
      vertex 59.9 78 0
      vertex 57.9 -1 0
    endloop
  endfacet
  facet normal 0 0 -1
    outer loop
      vertex 57.9 -1 0
      vertex 59.0361 -2.64597 0
      vertex 58.1411 -2.98542 0
    endloop
  endfacet
  facet normal 0 0 -1
    outer loop
      vertex 59.9 78 0
      vertex 57.9 78 0
      vertex 59.6709 78.9294 0
    endloop
  endfacet
  facet normal -0 0 -1
    outer loop
      vertex 59.6709 78.9294 0
      vertex 57.9 78 0
      vertex 59.0361 79.646 0
    endloop
  endfacet
  facet normal 0 0 -1
    outer loop
      vertex -0.758926 -2.98542 0
      vertex 57.9 -1 0
      vertex 58.1411 -2.98542 0
    endloop
  endfacet
  facet normal 0 0 -1
    outer loop
      vertex -0.758926 -2.98542 0
      vertex -1 -1 0
      vertex 57.9 -1 0
    endloop
  endfacet
  facet normal 0 0 -1
    outer loop
      vertex -2.49702 -2.32625 0
      vertex -1 -1 0
      vertex -1.70921 -2.87003 0
    endloop
  endfacet
  facet normal 0 0 -1
    outer loop
      vertex -1.70921 -2.87003 0
      vertex -1 -1 0
      vertex -0.758926 -2.98542 0
    endloop
  endfacet
  facet normal -0 0 -1
    outer loop
      vertex 59.0361 79.646 0
      vertex 57.9 78 0
      vertex 58.1411 79.9854 0
    endloop
  endfacet
  facet normal 0 0 -1
    outer loop
      vertex 57.9 78 0
      vertex -0.758926 79.9854 0
      vertex 58.1411 79.9854 0
    endloop
  endfacet
  facet normal 0 0 -1
    outer loop
      vertex -1 78 0
      vertex -0.758926 79.9854 0
      vertex 57.9 78 0
    endloop
  endfacet
  facet normal 0 0 -1
    outer loop
      vertex -1 78 0
      vertex -1.70921 79.87 0
      vertex -0.758926 79.9854 0
    endloop
  endfacet
  facet normal -0 0 -1
    outer loop
      vertex -1 -1 0
      vertex -2.94188 -1.47863 0
      vertex -1 78 0
    endloop
  endfacet
  facet normal 0 0 -1
    outer loop
      vertex -1 -1 0
      vertex -2.49702 -2.32625 0
      vertex -2.94188 -1.47863 0
    endloop
  endfacet
  facet normal 0 0 -1
    outer loop
      vertex -2.94188 78.4786 0
      vertex -1 78 0
      vertex -2.94188 -1.47863 0
    endloop
  endfacet
  facet normal 0 -0 -1
    outer loop
      vertex -2.49702 79.3262 0
      vertex -1 78 0
      vertex -2.94188 78.4786 0
    endloop
  endfacet
  facet normal 0 0 -1
    outer loop
      vertex -1 78 0
      vertex -2.49702 79.3262 0
      vertex -1.70921 79.87 0
    endloop
  endfacet
endsolid OpenSCAD_Model
